<svg xmlns="http://www.w3.org/2000/svg" xmlns:xlink="http://www.w3.org/1999/xlink" version="1.1" x="0px" y="0px" viewBox="0 0 5 6.25" enable-background="new 0 0 5 5" xml:space="preserve"><g><path fill="#000000" d="M4.496,2.458C4.493,2.441,4.488,2.425,4.483,2.409C4.474,2.384,4.459,2.364,4.434,2.353   C4.416,2.345,4.398,2.336,4.379,2.33c-0.02-0.006-0.04-0.001-0.056,0.012C4.311,2.353,4.3,2.366,4.29,2.38   C4.278,2.396,4.269,2.414,4.258,2.43C4.251,2.44,4.24,2.445,4.229,2.444C4.206,2.443,4.184,2.442,4.161,2.437   c-0.025-0.005-0.05-0.008-0.076-0.008c-0.045,0-0.091-0.003-0.136,0C3.904,2.431,3.86,2.411,3.814,2.424   C3.808,2.427,3.798,2.423,3.79,2.421C3.773,2.418,3.757,2.413,3.74,2.413c-0.065,0-0.128-0.021-0.193-0.023   c-0.044-0.013-0.09-0.01-0.135-0.011c-0.054,0-0.107,0.002-0.16-0.016C3.244,2.36,3.234,2.361,3.226,2.36   C3.187,2.359,3.149,2.343,3.11,2.338c-0.001,0-0.002-0.004-0.002-0.006c0-0.002,0.002-0.005,0.005-0.006   c0.021-0.017,0.049-0.012,0.073-0.019c0.084-0.022,0.17-0.041,0.257-0.053c0.004,0,0.008-0.007,0.01-0.012   c0.002-0.007-0.009-0.015-0.018-0.014c-0.039,0.006-0.078,0.012-0.117,0.02C3.255,2.261,3.19,2.269,3.128,2.288   C3.115,2.292,3.1,2.292,3.086,2.293c-0.014,0.001-0.029,0-0.042,0.003c-0.063,0.02-0.13,0.008-0.193,0.027   c-0.005,0.001-0.012,0-0.017,0c-0.011,0-0.021-0.005-0.019-0.011c0.001-0.005,0.003-0.012,0.006-0.015   C2.874,2.256,2.934,2.233,3,2.225c0.026-0.003,0.05-0.007,0.072-0.021c0.012-0.007,0.026-0.01,0.041-0.012   c0.081-0.011,0.161-0.029,0.24-0.052C3.42,2.122,3.486,2.096,3.557,2.089c0.023-0.002,0.044-0.01,0.067-0.012   c0.024-0.002,0.04,0.02,0.062,0.026c0.02,0.005,0.039,0.007,0.058-0.001C3.769,2.091,3.788,2.06,3.785,2.034   C3.781,1.995,3.758,1.961,3.73,1.955C3.711,1.95,3.691,1.95,3.672,1.957c-0.008,0.002-0.016,0.008-0.02,0.014   C3.645,1.983,3.639,1.996,3.634,2.009c-0.006,0.019-0.02,0.026-0.037,0.03C3.575,2.043,3.553,2.051,3.531,2.053   C3.468,2.059,3.409,2.076,3.349,2.095c-0.032,0.011-0.065,0.02-0.097,0.032C3.207,2.144,3.158,2.142,3.111,2.151   c-0.004,0-0.01-0.004-0.014-0.009C3.087,2.129,3.09,2.104,3.102,2.096C3.113,2.088,3.125,2.08,3.138,2.074   c0.109-0.053,0.215-0.115,0.329-0.159c0.007-0.003,0.015-0.008,0.022-0.012c0.027-0.015,0.055-0.03,0.082-0.045   C3.595,1.843,3.62,1.83,3.644,1.815c0.044-0.026,0.089-0.05,0.13-0.081c0.044-0.032,0.093-0.053,0.139-0.081   c0.043-0.027,0.087-0.055,0.133-0.075c0.049-0.022,0.098-0.043,0.147-0.066c0.031-0.015,0.047-0.026,0.075,0.023   C4.27,1.54,4.274,1.544,4.277,1.548c0.013,0.016,0.029,0.027,0.05,0.03c0.014,0.002,0.028,0.007,0.042,0.007   C4.41,1.586,4.431,1.572,4.443,1.541C4.452,1.517,4.46,1.492,4.464,1.467c0.003-0.016,0-0.034-0.004-0.05   C4.456,1.401,4.448,1.386,4.441,1.371C4.423,1.337,4.394,1.321,4.357,1.322C4.317,1.323,4.286,1.34,4.27,1.378   C4.263,1.397,4.257,1.416,4.25,1.435C4.245,1.448,4.242,1.462,4.227,1.473C4.133,1.504,4.041,1.548,3.955,1.602   c-0.015,0.01-0.031,0.011-0.048,0.01c0,0,0,0,0,0.001c0,0-0.001,0-0.001,0C3.897,1.625,3.886,1.628,3.874,1.629   c0,0-0.001,0-0.001,0.001C3.866,1.636,3.861,1.641,3.855,1.647c0,0-0.001,0-0.001,0C3.85,1.651,3.847,1.655,3.843,1.658   c-0.001,0-0.004-0.001-0.007-0.002c0.003-0.009,0.011-0.008,0.018-0.008c0,0,0,0,0.001-0.001C3.86,1.641,3.866,1.635,3.872,1.629   c0,0,0.001,0,0.002,0c0.007-0.011,0.018-0.015,0.031-0.015c0-0.001,0-0.001,0-0.001c0.001,0,0.001,0,0.001,0   c0.007-0.01,0.014-0.021,0.022-0.031c0.008-0.012,0.018-0.024,0.027-0.036C3.941,1.547,3.93,1.552,3.918,1.56   C3.869,1.592,3.819,1.626,3.769,1.656C3.71,1.691,3.649,1.719,3.593,1.759c-0.009,0.006-0.02,0.011-0.03,0.016   C3.515,1.799,3.467,1.822,3.419,1.847c-0.11,0.058-0.225,0.107-0.33,0.174C3.072,2.032,3.053,2.038,3.032,2.036   c-0.024-0.002-0.044,0.008-0.06,0.026C2.961,2.075,2.949,2.087,2.94,2.101C2.925,2.126,2.905,2.145,2.879,2.158   C2.833,2.181,2.788,2.204,2.743,2.227C2.74,2.228,2.737,2.229,2.734,2.229c-0.002,0-0.005,0-0.007-0.001   C2.722,2.225,2.72,2.219,2.725,2.214c0.027-0.029,0.054-0.059,0.082-0.086C2.86,2.074,2.911,2.016,2.975,1.973   C2.984,1.966,2.991,1.958,3,1.95c0.032-0.032,0.064-0.064,0.097-0.095c0.01-0.01,0.02-0.021,0.031-0.028   c0.035-0.021,0.061-0.05,0.09-0.078c0.092-0.088,0.178-0.182,0.278-0.261c0.024-0.019,0.046-0.032,0.077-0.017   c0.009,0.005,0.022,0.007,0.033,0.006c0.01-0.001,0.022-0.005,0.03-0.012C3.66,1.442,3.676,1.394,3.658,1.356   c-0.011-0.024-0.03-0.041-0.047-0.059c0.016-0.045,0.047-0.079,0.082-0.105c0.051-0.038,0.089-0.087,0.134-0.129   c0.019-0.018,0.034-0.038,0.055-0.053C3.907,0.99,3.922,0.962,3.935,0.934c0.004-0.009-0.001-0.026-0.011-0.03   C3.917,0.902,3.907,0.901,3.9,0.903C3.893,0.905,3.885,0.911,3.88,0.917C3.867,0.933,3.855,0.949,3.846,0.966   C3.824,1.002,3.805,1.041,3.774,1.071C3.7,1.144,3.631,1.223,3.547,1.287C3.536,1.295,3.526,1.306,3.516,1.316   C3.403,1.427,3.292,1.539,3.179,1.651c-0.016,0.016-0.033,0.031-0.045,0.05C3.109,1.737,3.079,1.767,3.049,1.796   C2.954,1.893,2.857,1.989,2.76,2.084C2.747,2.098,2.731,2.109,2.716,2.122c0,0,0,0.001,0,0.002   C2.714,2.125,2.713,2.126,2.712,2.127c0.001-0.001,0.002-0.003,0.003-0.005c0,0,0.001,0,0.001-0.001   c0.002-0.008,0.003-0.017,0.007-0.023C2.74,2.07,2.758,2.042,2.78,2.015c0.038-0.046,0.074-0.093,0.111-0.139   C2.926,1.834,2.956,1.79,2.984,1.745c0.021-0.034,0.043-0.067,0.067-0.099c0.026-0.034,0.051-0.068,0.08-0.099   c0.028-0.029,0.036-0.071,0.065-0.099c0.002-0.002,0.004-0.004,0.006-0.006C3.211,1.428,3.222,1.414,3.23,1.4   C3.26,1.348,3.289,1.295,3.317,1.244C3.324,1.231,3.33,1.218,3.338,1.207C3.4,1.129,3.454,1.046,3.507,0.962   C3.525,0.934,3.542,0.904,3.56,0.875C3.576,0.849,3.593,0.823,3.61,0.797c0.018-0.026,0.039-0.041,0.072-0.026   c0.024,0.01,0.05,0.01,0.076,0.007C3.795,0.773,3.833,0.737,3.838,0.7c0.007-0.049,0.006-0.096-0.031-0.135   C3.805,0.562,3.804,0.56,3.803,0.557C3.781,0.523,3.749,0.508,3.71,0.506C3.685,0.504,3.665,0.513,3.65,0.532   C3.629,0.56,3.615,0.591,3.615,0.626c0,0.025,0,0.051,0,0.076c0,0.015-0.002,0.028-0.01,0.041C3.571,0.798,3.54,0.856,3.501,0.909   C3.486,0.929,3.468,0.948,3.456,0.97c-0.03,0.055-0.059,0.11-0.104,0.154C3.351,1.126,3.349,1.129,3.348,1.132   C3.31,1.195,3.272,1.258,3.234,1.321C3.187,1.401,3.136,1.48,3.076,1.552c-0.044,0.054-0.089,0.11-0.121,0.174   C2.952,1.734,2.947,1.741,2.942,1.748C2.913,1.79,2.885,1.833,2.852,1.872C2.819,1.91,2.786,1.948,2.754,1.989   C2.726,2.027,2.693,2.063,2.663,2.1C2.656,2.109,2.649,2.119,2.645,2.129C2.628,2.166,2.6,2.194,2.577,2.225   C2.572,2.23,2.566,2.232,2.562,2.227C2.558,2.223,2.553,2.218,2.553,2.213c-0.001-0.008,0-0.017,0.002-0.025   c0.021-0.074,0.053-0.143,0.092-0.209C2.674,1.933,2.7,1.885,2.721,1.836c0.018-0.042,0.037-0.083,0.061-0.122   c0.034-0.055,0.062-0.114,0.095-0.17c0.02-0.034,0.035-0.071,0.052-0.107C2.935,1.424,2.938,1.41,2.945,1.398   c0.029-0.052,0.051-0.107,0.068-0.164c0.012-0.04,0.03-0.065,0.075-0.067c0.015,0,0.025-0.013,0.031-0.026   c0.007-0.016,0.012-0.032,0.016-0.048c0.002-0.008,0.003-0.018,0.001-0.025C3.13,1.045,3.124,1.023,3.114,1.003   C3.107,0.987,3.093,0.977,3.077,0.97c-0.018-0.008-0.042,0-0.053,0.015C3.012,1.001,3.004,1.019,3.003,1.04   C3.002,1.073,2.998,1.108,3.008,1.141C3.013,1.159,3.01,1.174,3.003,1.19C2.979,1.248,2.957,1.306,2.931,1.363   C2.887,1.46,2.838,1.556,2.782,1.648C2.771,1.665,2.76,1.681,2.75,1.699C2.741,1.715,2.733,1.734,2.725,1.751   c-0.004,0-0.008,0.001-0.009,0c-0.021-0.019-0.034-0.045-0.047-0.07C2.665,1.672,2.665,1.66,2.666,1.648   c0.001-0.014,0.006-0.027,0.009-0.042c0.01-0.047,0.027-0.093,0.025-0.142c-0.002-0.049,0.008-0.096,0.02-0.143   c0.018-0.068,0.037-0.137,0.064-0.202C2.79,1.105,2.796,1.089,2.798,1.072c0.007-0.06,0.032-0.114,0.051-0.17   C2.857,0.88,2.864,0.859,2.87,0.837c0.013-0.043,0.022-0.087,0.04-0.13c0.017-0.042,0.027-0.086,0.04-0.129   c0.001-0.005,0.004-0.011,0.006-0.016c0.005-0.012,0.015-0.019,0.026-0.02c0.042-0.001,0.077-0.019,0.112-0.039   c0.032-0.019,0.046-0.05,0.044-0.086C3.135,0.354,3.08,0.302,3.016,0.303c-0.006,0-0.011,0-0.017,0   c-0.051,0.002-0.074,0.002-0.085,0.07c0,0.006-0.003,0.011-0.005,0.016C2.895,0.433,2.896,0.473,2.925,0.511   c0.01,0.012,0.01,0.026,0.005,0.041C2.905,0.623,2.894,0.7,2.858,0.769C2.855,0.776,2.854,0.785,2.852,0.792   c-0.009,0.03-0.016,0.061-0.027,0.09C2.792,0.97,2.773,1.062,2.737,1.148C2.733,1.158,2.733,1.17,2.73,1.181   C2.725,1.197,2.72,1.214,2.714,1.23C2.712,1.236,2.707,1.238,2.703,1.235C2.701,1.234,2.7,1.23,2.699,1.228   c0-0.028-0.001-0.057-0.001-0.085c0-0.026,0.006-0.049,0.022-0.071c0.016-0.023,0.027-0.05,0.038-0.076   C2.77,0.966,2.742,0.931,2.709,0.931c-0.032,0-0.053,0.015-0.066,0.043c-0.008,0.017-0.01,0.033,0.008,0.044   c0.022,0.014,0.032,0.033,0.023,0.058C2.664,1.109,2.664,1.143,2.664,1.177c0,0.057,0.001,0.113,0.001,0.17   c0,0.034-0.005,0.067-0.016,0.101C2.634,1.49,2.625,1.535,2.609,1.577C2.592,1.625,2.58,1.675,2.541,1.712   c-0.01,0.01-0.014,0.025-0.015,0.039c-0.001,0.011-0.002,0.023,0,0.034c0.005,0.041-0.005,0.079-0.018,0.117   c-0.013,0.04-0.023,0.081-0.036,0.122c-0.01,0.029-0.02,0.059-0.03,0.088C2.441,2.116,2.436,2.118,2.431,2.122   C2.429,2.112,2.427,2.104,2.427,2.096c0-0.105,0-0.209,0.001-0.314c0-0.014,0-0.029,0.003-0.042   C2.442,1.683,2.438,1.626,2.442,1.57c0.003-0.051,0-0.102,0.015-0.152C2.46,1.411,2.459,1.402,2.46,1.394   c0.003-0.065,0.023-0.128,0.02-0.194c0-0.008,0.003-0.016,0.005-0.025c0.016-0.082,0.013-0.163,0-0.245   C2.479,0.901,2.478,0.874,2.48,0.845c0.001-0.011,0.006-0.022,0.017-0.028c0.01-0.005,0.021-0.009,0.031-0.015   C2.548,0.79,2.559,0.771,2.561,0.747c0.003-0.033-0.008-0.061-0.029-0.086C2.514,0.639,2.477,0.637,2.456,0.656   C2.44,0.67,2.429,0.687,2.427,0.708C2.425,0.736,2.424,0.764,2.443,0.789c0.013,0.017,0.016,0.036,0.016,0.056   c0,0.02,0,0.04,0,0.06c0,0.042-0.001,0.084,0.012,0.126c0.008,0.024,0.007,0.051,0,0.076C2.461,1.142,2.46,1.179,2.459,1.215   c0,0.015-0.001,0.029-0.003,0.042C2.442,1.324,2.428,1.391,2.424,1.458c0,0.009-0.001,0.018-0.004,0.025   C2.407,1.52,2.408,1.556,2.408,1.593c0,0.042-0.003,0.085,0,0.127c0.003,0.045-0.016,0.088-0.013,0.133   c0,0.001-0.004,0.004-0.006,0.003c-0.002,0-0.006-0.003-0.006-0.005C2.38,1.821,2.376,1.791,2.376,1.759   c-0.001-0.104,0-0.21-0.001-0.314C2.374,1.365,2.38,1.286,2.369,1.207C2.367,1.192,2.373,1.18,2.377,1.167   c0.012-0.04-0.001-0.079-0.036-0.104C2.337,1.059,2.33,1.059,2.325,1.059c-0.006,0-0.015,0.01-0.016,0.018   C2.304,1.108,2.307,1.139,2.322,1.167c0.024,0.044,0.028,0.091,0.023,0.14c-0.001,0.02-0.002,0.04-0.002,0.06   C2.341,1.486,2.341,1.605,2.339,1.724c0,0.03,0.002,0.062-0.003,0.093C2.317,1.811,2.314,1.796,2.312,1.783   C2.304,1.735,2.291,1.689,2.281,1.642c-0.014-0.066-0.028-0.133-0.04-0.2C2.228,1.367,2.222,1.291,2.206,1.216   C2.195,1.164,2.187,1.111,2.177,1.058C2.169,1.016,2.158,0.975,2.149,0.934C2.143,0.9,2.141,0.866,2.133,0.833   c-0.018-0.08-0.033-0.161-0.056-0.239C2.074,0.58,2.071,0.566,2.068,0.552C2.066,0.539,2.064,0.525,2.062,0.51   C2.104,0.467,2.12,0.414,2.127,0.356C2.13,0.332,2.121,0.312,2.104,0.295C2.07,0.26,2.029,0.245,1.981,0.251   c-0.018,0.002-0.033,0.01-0.042,0.025c-0.017,0.027-0.03,0.055-0.037,0.085c-0.005,0.023-0.002,0.044,0.01,0.065   c0.023,0.038,0.051,0.067,0.095,0.081C2.014,0.51,2.021,0.516,2.029,0.521c0.005,0.016,0.012,0.032,0.017,0.047   C2.059,0.609,2.073,0.649,2.08,0.69c0.008,0.042,0.014,0.084,0.022,0.125c0.017,0.083,0.027,0.167,0.047,0.25   c0.009,0.036,0.018,0.072,0.02,0.108C2.171,1.231,2.19,1.285,2.192,1.342c0.013,0.037,0.013,0.076,0.012,0.115   c0,0,0,0.001,0.001,0.001v0.002c0.013,0.011,0.016,0.026,0.013,0.042c0,0.002-0.003,0.004-0.005,0.006c0,0-0.004-0.001-0.004-0.002   C2.208,1.491,2.207,1.476,2.206,1.461c0,0,0-0.001-0.001-0.001V1.458C2.199,1.449,2.192,1.44,2.188,1.431   C2.172,1.386,2.159,1.339,2.14,1.295C2.107,1.22,2.083,1.141,2.045,1.067C2.037,1.053,2.033,1.036,2.028,1.02   C2.014,0.971,1.999,0.922,1.986,0.873C1.97,0.81,1.941,0.751,1.92,0.689C1.916,0.676,1.907,0.665,1.899,0.652   C1.889,0.636,1.878,0.619,1.866,0.603c-0.012-0.017-0.018-0.035-0.02-0.055C1.846,0.534,1.843,0.52,1.838,0.507   c-0.01-0.032-0.034-0.052-0.065-0.061c-0.012-0.003-0.022,0-0.032,0.007C1.719,0.468,1.713,0.488,1.724,0.511   C1.732,0.53,1.742,0.548,1.762,0.554c0.041,0.012,0.065,0.042,0.088,0.075s0.034,0.071,0.053,0.106   C1.925,0.776,1.938,0.819,1.95,0.863c0.018,0.062,0.036,0.125,0.06,0.186c0.029,0.074,0.059,0.147,0.084,0.222   c0.025,0.075,0.05,0.15,0.073,0.226c0.017,0.054,0.029,0.109,0.045,0.164c0.009,0.03,0.02,0.06,0.033,0.087   c0.044,0.087,0.058,0.183,0.076,0.277C2.323,2.03,2.319,2.038,2.315,2.04c-0.003,0.002-0.012,0-0.015-0.003   C2.284,2.014,2.267,1.992,2.25,1.968C2.217,1.919,2.189,1.867,2.166,1.812c-0.029-0.067-0.059-0.135-0.09-0.201   C2.047,1.551,2.023,1.491,2,1.431C1.962,1.335,1.924,1.241,1.889,1.146C1.877,1.114,1.865,1.082,1.848,1.052   C1.845,1.045,1.837,1.041,1.831,1.035c-0.002,0.038,0.016,0.07,0.028,0.104C1.884,1.208,1.91,1.276,1.937,1.344   c0.037,0.097,0.072,0.195,0.117,0.289c0.01,0.02,0.016,0.04,0.015,0.062c0,0,0,0.001,0.001,0.001c0,0.001,0,0.001,0,0.001   C2.072,1.7,2.074,1.701,2.074,1.701c0,0.003-0.002,0.002-0.004-0.002c0,0-0.001,0-0.001,0c0,0,0-0.001,0-0.002   C2.028,1.646,1.987,1.597,1.947,1.547c-0.006-0.008-0.009-0.02-0.012-0.031C1.934,1.508,1.934,1.499,1.934,1.491   c0.001-0.042-0.021-0.068-0.053-0.089C1.864,1.391,1.837,1.404,1.835,1.423c-0.001,0.006-0.001,0.012,0,0.017   C1.84,1.469,1.852,1.493,1.874,1.513c0.032,0.028,0.06,0.059,0.084,0.094C1.983,1.644,2.016,1.675,2.04,1.714   C2.083,1.783,2.127,1.851,2.171,1.92C2.188,1.947,2.203,1.973,2.218,2C2.231,2.022,2.24,2.045,2.239,2.071c0,0,0,0,0,0.001   s0,0,0.001,0.001c0.002,0.001,0.004,0.002,0.004,0.002c0,0.004-0.001,0.002-0.004-0.002c0,0-0.001,0-0.001,0s0-0.001,0-0.001   c-0.026-0.03-0.052-0.059-0.077-0.089C2.107,1.91,2.062,1.831,1.997,1.767C1.993,1.763,1.99,1.758,1.987,1.753   C1.953,1.708,1.914,1.667,1.885,1.618C1.875,1.603,1.861,1.595,1.843,1.594c-0.009,0-0.018,0-0.026,0   c-0.015,0-0.027-0.006-0.037-0.018C1.726,1.515,1.678,1.449,1.621,1.39c-0.018-0.018-0.03-0.042-0.047-0.06   C1.516,1.271,1.469,1.204,1.41,1.146C1.383,1.119,1.362,1.083,1.335,1.055C1.326,1.044,1.32,1.031,1.313,1.019   C1.304,1.003,1.302,0.986,1.314,0.971c0.022-0.027,0.035-0.061,0.037-0.093c0.005-0.082-0.011-0.134-0.1-0.146   C1.229,0.729,1.206,0.728,1.183,0.729C1.166,0.729,1.15,0.738,1.138,0.751c-0.031,0.032-0.041,0.074-0.05,0.115   C1.082,0.893,1.1,0.914,1.11,0.937C1.117,0.95,1.123,0.962,1.13,0.975C1.138,0.991,1.152,1,1.171,1.001   c0.022,0.001,0.045,0.001,0.067,0.002c0.015,0.001,0.028,0.006,0.037,0.017c0.06,0.072,0.115,0.147,0.182,0.212   c0.004,0.004,0.008,0.008,0.011,0.014c0.017,0.03,0.042,0.053,0.065,0.077c0.025,0.027,0.049,0.055,0.071,0.084   C1.635,1.448,1.663,1.491,1.7,1.526c0.01,0.009,0.019,0.021,0.027,0.033c0.028,0.045,0.04,0.037,0.036,0.109   c-0.001,0.011,0,0.022,0.001,0.034C1.766,1.719,1.775,1.733,1.79,1.743c0.012,0.008,0.024,0.014,0.037,0.021   C1.842,1.773,1.858,1.775,1.875,1.77c0.019-0.006,0.035,0,0.045,0.015C1.95,1.827,1.987,1.862,2.021,1.899   c0.044,0.047,0.085,0.097,0.114,0.155c0,0,0.001,0,0.002,0c0.001,0.001,0.003,0.003,0.004,0.004   C2.14,2.057,2.138,2.056,2.137,2.055c0,0,0-0.001-0.001-0.001C2.123,2.051,2.109,2.048,2.097,2.043   C2.019,2.009,1.949,1.959,1.881,1.91C1.867,1.9,1.854,1.889,1.839,1.881C1.793,1.858,1.754,1.824,1.704,1.81   C1.696,1.808,1.69,1.8,1.683,1.796C1.621,1.761,1.56,1.726,1.498,1.692c-0.025-0.014-0.048-0.03-0.07-0.047   c-0.021-0.016-0.037-0.032-0.04-0.061C1.385,1.551,1.351,1.531,1.321,1.53C1.307,1.529,1.293,1.529,1.279,1.533   c-0.018,0.004-0.034,0-0.049-0.008C1.215,1.518,1.2,1.509,1.186,1.5C1.138,1.469,1.091,1.439,1.045,1.406   C1.016,1.384,0.99,1.357,0.964,1.331C0.956,1.324,0.952,1.312,0.95,1.301S0.949,1.279,0.947,1.268   C0.943,1.238,0.926,1.222,0.897,1.22c-0.018-0.001-0.034,0.001-0.05,0.008c-0.04,0.018-0.039,0.039-0.016,0.064   c0.021,0.023,0.038,0.049,0.075,0.05c0.01,0,0.021,0.007,0.03,0.013c0.019,0.012,0.038,0.025,0.056,0.039   c0.064,0.051,0.132,0.097,0.2,0.143c0.017,0.011,0.036,0.019,0.049,0.033c0.017,0.017,0.008,0.043,0.014,0.065   C1.256,1.641,1.258,1.646,1.26,1.652c0.006,0.013,0.017,0.022,0.031,0.026C1.299,1.68,1.307,1.682,1.315,1.682   C1.351,1.68,1.382,1.693,1.411,1.712c0.03,0.021,0.061,0.042,0.093,0.059c0.063,0.033,0.123,0.07,0.182,0.109   C1.777,1.938,1.87,1.992,1.964,2.043C2.032,2.08,2.089,2.13,2.148,2.178c0.021,0.018,0.04,0.04,0.06,0.06   C2.209,2.24,2.21,2.244,2.209,2.246c0,0.002-0.004,0.005-0.005,0.005C2.143,2.243,2.083,2.227,2.025,2.205   C1.924,2.167,1.823,2.131,1.727,2.082C1.712,2.074,1.696,2.072,1.68,2.073c0.005,0.005,0.01,0.012,0.017,0.016   c0.02,0.011,0.04,0.021,0.06,0.033C1.759,2.124,1.759,2.13,1.761,2.134C1.759,2.135,1.756,2.137,1.753,2.137   c-0.011,0-0.022-0.001-0.034-0.003c-0.071-0.017-0.142-0.036-0.214-0.05C1.464,2.076,1.423,2.065,1.384,2.046   C1.356,2.033,1.325,2.029,1.295,2.02C1.278,2.016,1.261,2.013,1.246,2.007C1.222,1.997,1.198,1.99,1.173,1.984   C1.124,1.971,1.074,1.96,1.028,1.938C1.013,1.931,0.997,1.926,0.98,1.921C0.967,1.916,0.953,1.912,0.939,1.909   c-0.011-0.002-0.022,0-0.031,0.009C0.898,1.93,0.896,1.944,0.902,1.958c0.003,0.007,0.008,0.015,0.015,0.02   c0.018,0.014,0.039,0.024,0.063,0.018c0.022-0.007,0.044-0.009,0.066,0C1.115,2.02,1.188,2.034,1.259,2.052   C1.275,2.057,1.292,2.06,1.308,2.066C1.365,2.09,1.422,2.116,1.486,2.115c0.043,0.012,0.087,0.024,0.131,0.036   c0.027,0.007,0.054,0.017,0.082,0.021C1.743,2.18,1.786,2.194,1.827,2.214c0.096,0.045,0.196,0.072,0.302,0.08   c0.008,0,0.017,0.001,0.025,0.004c0.005,0.001,0.01,0.004,0.015,0.007C2.17,2.307,2.173,2.311,2.172,2.312   C2.17,2.316,2.167,2.323,2.164,2.323C2.128,2.319,2.091,2.314,2.055,2.309C2.036,2.306,2.017,2.303,1.997,2.3   C1.949,2.292,1.902,2.281,1.854,2.277C1.787,2.272,1.721,2.252,1.652,2.255c-0.005,0-0.011-0.001-0.017-0.002   C1.572,2.242,1.509,2.227,1.443,2.224c-0.008,0-0.017-0.002-0.025-0.004C1.335,2.204,1.252,2.188,1.169,2.172   c-0.021-0.004-0.038-0.01-0.051-0.027C1.113,2.138,1.107,2.133,1.1,2.128C1.087,2.118,1.056,2.12,1.044,2.13   C1.002,2.167,1.019,2.227,1.056,2.245C1.067,2.25,1.079,2.251,1.089,2.246C1.104,2.238,1.118,2.229,1.133,2.22   c0.012-0.008,0.026-0.012,0.04-0.009c0.042,0.01,0.085,0.008,0.126,0.018c0.068,0.017,0.138,0.028,0.208,0.035   c0.072,0.008,0.145,0.023,0.218,0.03C1.733,2.295,1.742,2.295,1.75,2.298C1.783,2.31,1.817,2.309,1.851,2.312   c0.004,0,0.008,0.005,0.012,0.008C1.85,2.331,1.835,2.327,1.821,2.327C1.643,2.328,1.465,2.328,1.286,2.328   c-0.014,0-0.028,0-0.042,0c-0.021,0-0.039-0.006-0.054-0.022C1.156,2.271,1.115,2.27,1.072,2.278   C1.066,2.279,1.055,2.292,1.057,2.296c0.002,0.007,0.006,0.019,0.012,0.021c0.03,0.01,0.056,0.025,0.079,0.047   C1.16,2.376,1.178,2.379,1.195,2.372C1.219,2.361,1.245,2.36,1.27,2.359c0.011,0,0.023,0,0.034,0c0.045,0,0.091,0.003,0.135-0.011   C1.483,2.353,1.528,2.36,1.573,2.36C1.74,2.359,1.907,2.361,2.075,2.363c0.02,0,0.04,0.001,0.059,0.004   c0.004,0.001,0.009,0.007,0.011,0.011C2.146,2.382,2.144,2.39,2.141,2.393C2.135,2.399,2.127,2.406,2.12,2.407   C2.067,2.415,2.016,2.433,1.961,2.43C1.939,2.429,1.917,2.436,1.894,2.439C1.883,2.441,1.872,2.444,1.861,2.445   C1.807,2.447,1.755,2.463,1.702,2.471C1.674,2.475,1.646,2.481,1.618,2.48C1.564,2.478,1.512,2.493,1.459,2.502   c-0.001,0-0.004,0.005-0.004,0.006C1.458,2.513,1.46,2.518,1.463,2.521c0.001,0.002,0.006,0.003,0.008,0.002   C1.524,2.511,1.579,2.518,1.63,2.5C1.67,2.5,1.708,2.486,1.747,2.482c0.034-0.004,0.067-0.006,0.101-0.015   c0.032-0.009,0.067-0.005,0.1-0.016c0.015-0.005,0.033-0.001,0.05,0c0.004,0,0.009,0.006,0.011,0.011   C2.011,2.466,2.01,2.474,2.007,2.477C1.961,2.516,1.912,2.548,1.859,2.576C1.847,2.583,1.832,2.583,1.818,2.579   C1.801,2.576,1.785,2.57,1.769,2.568C1.733,2.563,1.69,2.587,1.68,2.62C1.658,2.689,1.645,2.678,1.6,2.698   C1.587,2.704,1.574,2.71,1.561,2.713C1.476,2.737,1.396,2.771,1.313,2.8C1.284,2.811,1.26,2.819,1.241,2.786   C1.238,2.779,1.229,2.775,1.221,2.771C1.202,2.762,1.17,2.77,1.16,2.788C1.15,2.805,1.142,2.822,1.135,2.841   c-0.003,0.01-0.002,0.022-0.002,0.033C1.134,2.9,1.159,2.928,1.186,2.935C1.207,2.94,1.242,2.926,1.25,2.903   c0.012-0.036,0.034-0.058,0.067-0.071c0.071-0.028,0.141-0.06,0.215-0.078C1.557,2.748,1.581,2.74,1.604,2.73   c0.037-0.016,0.071-0.018,0.104,0.008c0.009,0.007,0.021,0.01,0.032,0.008c0.02-0.003,0.039-0.007,0.059-0.009   C1.824,2.733,1.84,2.719,1.848,2.695c0.003-0.008,0.005-0.016,0.008-0.024C1.864,2.648,1.88,2.633,1.902,2.624   C1.936,2.61,1.97,2.596,2.004,2.582C2.04,2.567,2.078,2.556,2.117,2.553c0.002,0,0.005,0.003,0.005,0.005s0,0.007-0.001,0.008   C2.029,2.631,1.936,2.696,1.843,2.76C1.84,2.762,1.838,2.763,1.835,2.764C1.79,2.78,1.75,2.809,1.709,2.834   C1.669,2.86,1.624,2.878,1.589,2.913c-0.01,0.009-0.024,0.014-0.036,0.021C1.499,2.967,1.446,2.999,1.394,3.032   C1.376,3.042,1.361,3.055,1.354,3.075c0.021,0,0.039-0.009,0.056-0.019c0.029-0.018,0.058-0.036,0.087-0.054   c0.05-0.031,0.102-0.061,0.15-0.096c0.03-0.021,0.061-0.041,0.093-0.058c0.015-0.007,0.03-0.016,0.044-0.025   c0.065-0.04,0.13-0.08,0.196-0.119c0.016-0.01,0.033-0.019,0.053-0.02c0,0,0,0,0-0.001l0.018-0.018c0.001,0,0.001,0,0.001,0   c0-0.002,0.001-0.004,0.002-0.004C2.06,2.663,2.058,2.664,2.053,2.666c0,0,0,0.001,0,0.001C2.047,2.673,2.041,2.679,2.035,2.685   c0,0-0.001,0-0.001,0C2.025,2.7,2.013,2.71,1.999,2.719C1.972,2.738,1.943,2.756,1.917,2.778c-0.044,0.039-0.086,0.08-0.133,0.117   c-0.05,0.041-0.099,0.083-0.151,0.12C1.61,3.031,1.589,3.048,1.577,3.075c0.014-0.001,0.027-0.004,0.037-0.013   c0.022-0.022,0.05-0.038,0.075-0.056C1.736,2.97,1.783,2.934,1.83,2.898c0.009-0.007,0.017-0.015,0.024-0.023   c0.042-0.047,0.092-0.082,0.142-0.119c0.009-0.007,0.02-0.012,0.028-0.02c0.062-0.058,0.137-0.098,0.204-0.151   c0.013-0.01,0.027-0.017,0.044-0.019c0,0,0.001-0.001,0.001-0.001c0.001,0,0.001,0,0.002,0c0.004-0.006,0.008-0.013,0.014-0.018   c0.005-0.006,0.01-0.003,0.011,0.004c0,0.002-0.002,0.006-0.004,0.006C2.289,2.56,2.282,2.562,2.274,2.564c0,0,0,0.001-0.001,0.001   c0,0-0.001,0-0.002,0C2.262,2.586,2.245,2.601,2.23,2.617c-0.016,0.017-0.034,0.031-0.046,0.05c-0.028,0.043-0.064,0.078-0.1,0.115   C2.064,2.802,2.045,2.822,2.029,2.846C2.013,2.869,1.992,2.888,1.968,2.904C1.94,2.924,1.913,2.943,1.881,2.957   C1.865,2.963,1.853,2.975,1.844,2.99c-0.004,0.008,0,0.026,0.01,0.029C1.861,3.022,1.87,3.024,1.878,3.023   C1.901,3.02,1.921,3.009,1.934,2.988c0.017-0.027,0.04-0.048,0.062-0.07c0.03-0.03,0.062-0.058,0.084-0.095   c0.007-0.012,0.02-0.02,0.03-0.03C2.121,2.782,2.133,2.77,2.145,2.757c0.045-0.049,0.09-0.1,0.145-0.14c0-0.001,0-0.001,0-0.002   C2.295,2.61,2.301,2.604,2.307,2.599c0.001-0.001,0.002-0.003,0.004-0.005C2.31,2.596,2.309,2.598,2.308,2.6   C2.302,2.605,2.296,2.611,2.29,2.617c0,0,0,0-0.001,0.001C2.288,2.625,2.288,2.634,2.284,2.641   C2.256,2.683,2.229,2.726,2.197,2.766c-0.021,0.027-0.042,0.053-0.06,0.082c-0.019,0.029-0.041,0.054-0.063,0.08   C2.029,2.978,1.983,3.028,1.941,3.081c-0.049,0.062-0.095,0.127-0.14,0.192C1.778,3.307,1.753,3.335,1.707,3.329   c-0.003,0-0.006,0.001-0.008,0.001C1.681,3.336,1.668,3.346,1.663,3.364c-0.005,0.016-0.007,0.033-0.01,0.05   C1.646,3.448,1.659,3.474,1.685,3.496C1.691,3.5,1.699,3.504,1.707,3.509c0.017,0.009,0.02,0.025,0.022,0.042   c0.03-0.017,0.052-0.041,0.067-0.073C1.809,3.453,1.82,3.426,1.838,3.405C1.881,3.355,1.91,3.296,1.953,3.247   c0.009-0.01,0.015-0.023,0.022-0.036c0.014-0.021,0.026-0.043,0.041-0.064C2.06,3.083,2.104,3.021,2.147,2.958   c0.004-0.007,0.01-0.014,0.016-0.02c0.024-0.021,0.04-0.048,0.058-0.074C2.228,2.856,2.234,2.847,2.24,2.837   c0.006-0.009,0.01-0.023,0.023-0.018c0.008,0.003,0.001,0.015,0,0.023C2.235,2.935,2.197,3.023,2.159,3.111   c-0.06,0.141-0.114,0.284-0.173,0.425c-0.01,0.023-0.018,0.048-0.031,0.07C1.923,3.66,1.9,3.717,1.877,3.775   C1.848,3.849,1.814,3.921,1.761,3.983C1.745,3.987,1.729,3.991,1.713,3.996c-0.03,0.009-0.057,0.027-0.078,0.049   c-0.049,0.052-0.05,0.096-0.003,0.15C1.637,4.203,1.644,4.208,1.65,4.213c0.013,0.011,0.029,0.018,0.046,0.02   c0.035,0.004,0.068,0.002,0.097-0.021C1.8,4.207,1.808,4.203,1.815,4.199C1.846,4.18,1.863,4.153,1.872,4.118   c0.005-0.021,0.002-0.04-0.008-0.057C1.855,4.046,1.845,4.033,1.834,4.02C1.827,4.01,1.82,4.002,1.821,3.988   c0.003-0.006,0.007-0.014,0.011-0.021c0.04-0.069,0.079-0.138,0.1-0.215c0.015-0.058,0.039-0.113,0.063-0.167   c0.051-0.111,0.088-0.227,0.138-0.338c0.04-0.088,0.072-0.179,0.108-0.268c0.014-0.034,0.035-0.065,0.044-0.101   C2.295,2.845,2.314,2.817,2.334,2.79c0.002-0.003,0.01-0.003,0.015-0.004c0.001,0,0.004,0.004,0.004,0.007   c0.001,0.07,0.003,0.141,0.003,0.212c0,0.062,0.004,0.125-0.013,0.186C2.341,3.199,2.341,3.208,2.341,3.216   C2.342,3.279,2.32,3.338,2.32,3.401C2.307,3.437,2.307,3.474,2.306,3.51c0,0.023-0.003,0.045-0.011,0.066   C2.287,3.598,2.28,3.62,2.274,3.642c-0.01,0.033-0.026,0.062-0.051,0.087C2.215,3.737,2.207,3.745,2.201,3.754   c-0.021,0.031-0.054,0.063-0.08,0.08c-0.004,0.003-0.007,0.008-0.01,0.013C2.107,3.854,2.108,3.866,2.112,3.872   c0.016,0.018,0.035,0.028,0.057,0.035c0.011,0.003,0.031-0.008,0.033-0.02C2.204,3.878,2.206,3.87,2.206,3.862   C2.205,3.811,2.221,3.767,2.257,3.731C2.269,3.719,2.279,3.705,2.29,3.692C2.294,3.687,2.3,3.688,2.305,3.695   C2.308,3.732,2.308,3.771,2.298,3.81C2.292,3.832,2.292,3.855,2.29,3.877s0,0.046-0.005,0.067c-0.01,0.036-0.011,0.073-0.013,0.109   c0,0.019-0.007,0.032-0.022,0.043c-0.014,0.01-0.027,0.021-0.039,0.033c-0.029,0.03-0.045,0.065-0.03,0.108   C2.183,4.245,2.184,4.25,2.185,4.255c0.002,0.037,0.023,0.063,0.047,0.088C2.246,4.358,2.265,4.366,2.286,4.36   C2.305,4.355,2.324,4.35,2.343,4.344c0.015-0.004,0.028,0.003,0.028,0.021c0,0.017,0,0.034-0.004,0.051   C2.362,4.438,2.359,4.46,2.365,4.483C2.376,4.525,2.374,4.567,2.37,4.609C2.366,4.64,2.362,4.67,2.362,4.701   c0.019,0.023,0.042,0.042,0.069,0.047c0.043,0.008,0.063-0.017,0.08-0.06c0-0.098,0-0.195,0-0.292c0-0.025,0.001-0.052-0.004-0.076   C2.499,4.278,2.499,4.236,2.498,4.193c-0.003-0.13-0.004-0.261-0.005-0.391c0-0.037,0-0.073-0.008-0.109   C2.479,3.671,2.479,3.648,2.479,3.625c0-0.068,0-0.136-0.001-0.204C2.477,3.367,2.479,3.313,2.466,3.26   c-0.004-0.019-0.002-0.04-0.002-0.06C2.463,3.079,2.461,2.958,2.461,2.835c0-0.057,0.001-0.114,0.001-0.17   c0-0.026,0.006-0.051,0.016-0.075C2.481,2.583,2.486,2.583,2.491,2.59c0.001,0.009,0.002,0.02,0.004,0.031   c0.024,0.11,0.05,0.221,0.074,0.331C2.584,3.021,2.598,3.09,2.611,3.16c0.009,0.05,0.013,0.101,0.023,0.151   C2.65,3.388,2.667,3.465,2.687,3.542c0.011,0.042,0.014,0.082-0.002,0.125c-0.015,0.04,0.002,0.079,0.03,0.109   C2.73,3.792,2.751,3.804,2.775,3.799c0.038-0.007,0.061-0.033,0.062-0.07c0-0.009,0-0.017-0.001-0.025   C2.83,3.667,2.817,3.638,2.774,3.634c-0.003,0-0.006-0.001-0.008-0.002C2.751,3.628,2.742,3.618,2.737,3.604   C2.73,3.585,2.721,3.567,2.719,3.547C2.715,3.51,2.706,3.475,2.692,3.44C2.679,3.405,2.683,3.368,2.674,3.332   C2.667,3.302,2.666,3.271,2.659,3.24C2.646,3.182,2.632,3.124,2.629,3.064c0-0.011-0.004-0.022-0.006-0.034   C2.615,2.987,2.605,2.942,2.597,2.898C2.591,2.871,2.586,2.843,2.582,2.815C2.581,2.812,2.586,2.808,2.589,2.804   c0.002,0.002,0.005,0.003,0.007,0.005C2.605,2.823,2.61,2.839,2.611,2.856c0.002,0.02,0.007,0.039,0.015,0.058   C2.642,2.953,2.657,2.993,2.671,3.03C2.668,3.053,2.665,3.072,2.663,3.092C2.662,3.115,2.66,3.138,2.673,3.158   C2.688,3.182,2.71,3.19,2.737,3.195c0.012,0.001,0.021,0.008,0.026,0.019c0.017,0.042,0.035,0.084,0.048,0.127   c0.022,0.073,0.041,0.147,0.062,0.22c0.007,0.025,0.011,0.049,0.01,0.075c-0.001,0.02,0,0.04,0.003,0.059   c0.002,0.021,0.031,0.03,0.046,0.015c0.008-0.007,0.015-0.017,0.019-0.027C2.96,3.658,2.957,3.632,2.941,3.61   C2.91,3.568,2.892,3.522,2.882,3.471c-0.002-0.014-0.01-0.027-0.014-0.04c-0.021-0.059-0.041-0.118-0.06-0.177   C2.801,3.235,2.798,3.216,2.805,3.196C2.806,3.193,2.808,3.189,2.81,3.189C2.815,3.188,2.823,3.188,2.825,3.19   c0.009,0.011,0.017,0.022,0.023,0.035C2.89,3.306,2.93,3.387,2.971,3.468c0.021,0.041,0.041,0.081,0.064,0.12   c0.071,0.116,0.137,0.234,0.192,0.359C3.23,3.955,3.234,3.962,3.237,3.97C3.24,3.981,3.24,3.993,3.233,4.003   C3.227,4.012,3.22,4.021,3.212,4.03C3.194,4.05,3.19,4.075,3.19,4.101c0,0.039,0.018,0.071,0.039,0.102   C3.277,4.27,3.366,4.254,3.398,4.193c0.015-0.028,0.024-0.058,0.028-0.089C3.432,4.063,3.42,4.026,3.389,3.997   c-0.023-0.022-0.05-0.038-0.083-0.038c-0.026,0-0.041-0.012-0.051-0.036C3.238,3.884,3.218,3.846,3.199,3.809   C3.143,3.704,3.086,3.6,3.022,3.5C3.019,3.495,3.017,3.49,3.014,3.484C2.962,3.38,2.91,3.276,2.857,3.173   C2.845,3.147,2.836,3.121,2.836,3.091c0-0.03-0.01-0.056-0.033-0.075C2.774,2.992,2.752,2.961,2.739,2.928   C2.717,2.873,2.687,2.821,2.665,2.766C2.658,2.751,2.653,2.735,2.648,2.72c0,0-0.001,0-0.002-0.001c0,0,0-0.001,0-0.002   C2.644,2.713,2.64,2.71,2.637,2.706C2.636,2.705,2.639,2.702,2.639,2.7C2.647,2.703,2.646,2.71,2.646,2.717   c0,0,0.001,0.001,0.001,0.001c0,0,0.001,0.001,0.001,0.001C2.659,2.728,2.671,2.735,2.68,2.745   c0.015,0.017,0.026,0.037,0.041,0.054c0.055,0.065,0.095,0.14,0.146,0.208c0.02,0.027,0.04,0.056,0.053,0.086   c0.027,0.06,0.061,0.115,0.09,0.172c0.032,0.062,0.077,0.119,0.107,0.183c0.035,0.038,0.06,0.083,0.097,0.118   C3.267,3.617,3.317,3.67,3.369,3.723c0.017,0.017,0.028,0.035,0.026,0.06c0,0.008,0,0.017,0,0.025c0,0.005,0.003,0.011,0.005,0.016   C3.401,3.826,3.404,3.83,3.406,3.83c0.005,0,0.014,0,0.015-0.003c0.015-0.028,0.033-0.052,0.064-0.062   c0.004-0.001,0.007-0.008,0.009-0.014c0.01-0.028-0.011-0.065-0.041-0.056C3.429,3.703,3.408,3.698,3.39,3.683   c-0.016-0.012-0.03-0.026-0.044-0.039c-0.062-0.058-0.119-0.121-0.17-0.188C3.125,3.39,3.087,3.317,3.043,3.249   c-0.029-0.08-0.072-0.154-0.116-0.226C2.89,2.962,2.858,2.899,2.814,2.843s-0.08-0.117-0.12-0.175   C2.68,2.648,2.667,2.626,2.665,2.601c0,0-0.001,0-0.001-0.001c0,0,0-0.001,0-0.001c-0.016-0.007-0.031-0.01-0.047,0   c-0.003,0.002-0.009,0-0.017-0.001C2.599,2.57,2.598,2.542,2.597,2.515c0,0,0,0-0.001,0C2.594,2.514,2.593,2.512,2.591,2.511   c0.002,0.001,0.004,0.002,0.006,0.003c0,0,0,0.001,0,0.001c0.034,0.019,0.061,0.043,0.067,0.083h0.001c0,0.001,0,0.001,0,0.002   C2.676,2.608,2.69,2.615,2.697,2.625c0.035,0.056,0.083,0.1,0.123,0.151C2.883,2.859,2.95,2.94,3.014,3.022   c0.035,0.044,0.073,0.086,0.109,0.129c0.046,0.053,0.093,0.106,0.139,0.16c0.019,0.022,0.031,0.047,0.03,0.077   c0,0.017,0.001,0.034,0.003,0.051c0.005,0.035,0.034,0.06,0.07,0.062c0.012,0,0.023,0,0.034-0.001   c0.023-0.003,0.044-0.021,0.046-0.043S3.45,3.412,3.446,3.39C3.439,3.346,3.405,3.309,3.35,3.314   C3.344,3.315,3.339,3.317,3.333,3.318C3.317,3.322,3.307,3.314,3.297,3.303C3.286,3.287,3.274,3.271,3.259,3.258   C3.242,3.243,3.227,3.226,3.212,3.209C3.178,3.171,3.145,3.133,3.114,3.093C3.063,3.028,3.009,2.967,2.96,2.901   C2.917,2.845,2.868,2.794,2.827,2.737c-0.041-0.058-0.086-0.112-0.13-0.167C2.688,2.558,2.683,2.546,2.682,2.532   c0,0-0.001,0-0.001,0C2.675,2.526,2.669,2.52,2.664,2.515C2.662,2.514,2.661,2.512,2.659,2.511   c0.002,0.001,0.004,0.002,0.006,0.003l0.017,0.017c0,0,0,0.001,0,0.001C2.714,2.544,2.74,2.565,2.763,2.59   c0.03,0.031,0.063,0.057,0.099,0.081C2.914,2.705,2.965,2.74,3.018,2.772c0.029,0.018,0.061,0.031,0.091,0.046   c0.045,0.003,0.08,0.029,0.111,0.057c0.044,0.04,0.092,0.075,0.137,0.114c0.056,0.048,0.115,0.092,0.171,0.139   c0.032,0.027,0.064,0.056,0.1,0.079c0.063,0.043,0.12,0.095,0.178,0.144c0.009,0.008,0.014,0.019,0.01,0.031   c-0.009,0.03-0.013,0.06-0.013,0.092c-0.001,0.04,0.015,0.071,0.04,0.1c0.03,0.034,0.114,0.044,0.15,0.018   c0.064-0.046,0.075-0.106,0.061-0.164C4.043,3.383,4.015,3.353,3.971,3.338C3.949,3.331,3.926,3.327,3.904,3.33   C3.867,3.334,3.837,3.324,3.81,3.3C3.801,3.293,3.79,3.289,3.781,3.281C3.69,3.206,3.592,3.138,3.503,3.06   C3.464,3.025,3.422,2.998,3.382,2.966C3.332,2.925,3.28,2.885,3.229,2.845C3.218,2.836,3.208,2.826,3.197,2.817   C3.181,2.803,3.175,2.785,3.175,2.764c0-0.033,0.012-0.044,0.04-0.035c0.043,0.014,0.086,0.028,0.127,0.047   C3.374,2.79,3.405,2.803,3.437,2.814c0.048,0.018,0.097,0.034,0.146,0.049C3.619,2.874,3.647,2.891,3.66,2.932   c0.006,0.021,0.036,0.03,0.057,0.022c0.005-0.002,0.011-0.003,0.015-0.007c0.024-0.024,0.051-0.018,0.079-0.009   C3.83,2.944,3.849,2.953,3.868,2.954C3.897,2.957,3.923,2.967,3.95,2.977c0.042,0.016,0.085,0.03,0.128,0.043   c0.004,0.001,0.011-0.002,0.016-0.004c-0.003-0.004-0.005-0.009-0.01-0.012C4.067,2.995,4.05,2.984,4.031,2.978   c-0.043-0.014-0.087-0.026-0.13-0.039C3.86,2.927,3.819,2.918,3.783,2.892C3.778,2.87,3.775,2.847,3.769,2.826   c-0.009-0.03-0.034-0.044-0.063-0.05c-0.005-0.001-0.012,0-0.017,0.003C3.68,2.785,3.671,2.792,3.663,2.799   C3.649,2.812,3.634,2.818,3.617,2.81C3.51,2.757,3.403,2.705,3.297,2.651c-0.01-0.005-0.019-0.013-0.029-0.018   c-0.066-0.039-0.13-0.081-0.199-0.113C3.015,2.495,2.962,2.468,2.91,2.44C2.885,2.427,2.861,2.411,2.837,2.395   C2.833,2.393,2.83,2.386,2.831,2.382c0.001-0.004,0.006-0.01,0.01-0.012c0.011-0.004,0.022-0.007,0.033-0.007   c0.06,0,0.119,0,0.178,0c0.014,0,0.029,0,0.042,0.004C3.141,2.382,3.19,2.376,3.236,2.393c0.013,0.004,0.028,0.002,0.042,0.003   c0.017,0.001,0.035,0,0.051,0.004c0.042,0.014,0.084,0.011,0.126,0.014c0.022,0.001,0.046,0,0.067,0.006   c0.028,0.007,0.056,0.008,0.084,0.009c0.02,0.001,0.041,0,0.059,0.004C3.708,2.446,3.75,2.445,3.792,2.447   c0.017,0.001,0.035,0,0.05,0.005c0.039,0.012,0.078,0.011,0.118,0.011c0.048,0,0.096,0.002,0.144,0.001   c0.043-0.001,0.084,0.011,0.125,0.02c0.011,0.002,0.021,0.01,0.025,0.021c0.004,0.01,0.007,0.021,0.013,0.031   c0.023,0.043,0.065,0.06,0.109,0.072c0.005,0.001,0.012,0,0.017-0.001c0.013-0.003,0.028-0.006,0.041-0.012   C4.455,2.589,4.47,2.575,4.478,2.556C4.485,2.538,4.492,2.519,4.496,2.5C4.499,2.486,4.498,2.472,4.496,2.458z M3.598,1.8   c0,0,0.001-0.001,0.001-0.001s0.001,0,0.001,0c0.007-0.012,0.015-0.023,0.03-0.026c0.002,0,0.005,0.001,0.006,0.003   c0.001,0.002,0.001,0.005,0,0.007C3.628,1.795,3.614,1.796,3.601,1.799c0,0,0,0.001,0,0.001C3.6,1.8,3.599,1.8,3.598,1.8   C3.595,1.804,3.591,1.807,3.587,1.81C3.586,1.811,3.583,1.809,3.581,1.808C3.584,1.799,3.592,1.801,3.598,1.8z M3.395,1.898   c0.042-0.028,0.082-0.059,0.13-0.074c0.006-0.002,0.011,0.001,0.012,0.007c0,0.002-0.001,0.006-0.003,0.007   C3.525,1.847,3.518,1.856,3.508,1.861c-0.035,0.018-0.07,0.035-0.105,0.052C3.401,1.914,3.398,1.912,3.396,1.912   C3.395,1.91,3.392,1.908,3.392,1.906C3.392,1.903,3.393,1.899,3.395,1.898z M3.123,1.784c0,0,0-0.001,0-0.001   C3.129,1.777,3.134,1.771,3.14,1.765c0,0,0,0,0.001,0C3.143,1.748,3.15,1.733,3.162,1.721c0.061-0.062,0.122-0.125,0.184-0.187   c0.03-0.03,0.06-0.06,0.091-0.088c0.014-0.014,0.03-0.026,0.045-0.037c0.006-0.004,0.014-0.008,0.023-0.004   C3.51,1.408,3.509,1.42,3.503,1.427C3.499,1.432,3.496,1.436,3.492,1.44C3.444,1.483,3.403,1.534,3.349,1.571   c-0.012,0.007-0.022,0.018-0.029,0.03C3.301,1.63,3.275,1.652,3.25,1.673c-0.03,0.025-0.058,0.053-0.087,0.079   C3.156,1.757,3.148,1.761,3.142,1.765c0,0-0.001,0.001-0.001,0.001C3.135,1.772,3.129,1.777,3.124,1.783   C3.123,1.784,3.123,1.784,3.123,1.784C3.122,1.786,3.121,1.788,3.12,1.788C3.116,1.787,3.118,1.786,3.123,1.784z M2.216,2.463   C2.16,2.488,2.104,2.514,2.043,2.529C2.035,2.531,2.027,2.53,2.019,2.531c0,0,0,0,0,0.001c-0.001,0-0.001,0-0.002,0   c0,0.002-0.001,0.004-0.002,0.004C2.01,2.536,2.012,2.534,2.017,2.532c0.001,0,0.001-0.001,0.001-0.001h0.001   c0.005-0.007,0.008-0.015,0.014-0.02c0.014-0.01,0.029-0.019,0.042-0.029C2.115,2.451,2.16,2.44,2.21,2.447   c0.004,0,0.008,0.005,0.01,0.009C2.221,2.457,2.218,2.462,2.216,2.463z M2.222,2.174C2.216,2.168,2.21,2.163,2.205,2.157   c0,0,0,0,0-0.001C2.19,2.155,2.178,2.152,2.169,2.14c-0.001-0.002-0.001-0.005,0-0.007C2.17,2.132,2.173,2.13,2.175,2.13   c0.015,0.004,0.023,0.014,0.029,0.026l0.001,0C2.211,2.162,2.217,2.168,2.222,2.174c0.002,0,0.004,0.002,0.006,0.003   C2.226,2.177,2.224,2.175,2.222,2.174z M2.205,2.82C2.205,2.82,2.205,2.82,2.205,2.82C2.205,2.821,2.205,2.821,2.205,2.82   c-0.003,0.012-0.004,0.024-0.01,0.032c-0.039,0.055-0.08,0.109-0.12,0.164C2.031,3.074,1.989,3.134,1.953,3.198   C1.912,3.269,1.859,3.332,1.812,3.398C1.809,3.402,1.802,3.404,1.797,3.405C1.792,3.407,1.784,3.397,1.782,3.388   C1.778,3.364,1.781,3.343,1.797,3.324C1.799,3.322,1.8,3.319,1.803,3.317c0.024-0.024,0.043-0.051,0.059-0.082   c0.024-0.042,0.053-0.08,0.085-0.115C2.015,3.044,2.081,2.968,2.14,2.884C2.157,2.859,2.175,2.834,2.205,2.82   C2.204,2.821,2.205,2.82,2.205,2.82C2.205,2.82,2.205,2.82,2.205,2.82c0-0.013,0.003-0.026,0.014-0.035   c0.002-0.001,0.005-0.003,0.007-0.003c0.006,0.001,0.009,0.006,0.007,0.012C2.228,2.807,2.218,2.814,2.205,2.82z M2.37,4.062   c-0.001,0.01-0.013,0.023-0.021,0.023c-0.016,0-0.037-0.014-0.039-0.027C2.309,4.055,2.308,4.052,2.308,4.049   C2.307,4.01,2.303,3.97,2.314,3.932c0.008-0.03,0.008-0.061,0.01-0.092c0.001-0.047,0-0.095,0.013-0.142   C2.344,3.676,2.341,3.653,2.342,3.63C2.343,3.605,2.34,3.58,2.351,3.557c0.008,0.06,0.006,0.119,0.007,0.178   c0,0.031,0,0.062,0,0.092c0,0.02,0.002,0.04,0.006,0.059C2.377,3.945,2.373,4.003,2.37,4.062z M2.546,2.072   c-0.001,0-0.001,0-0.001,0.001C2.543,2.086,2.54,2.097,2.529,2.105c0,0,0,0.001,0,0.001c0,0,0,0-0.001,0.001   c0,0.018,0,0.036-0.016,0.048c0,0,0,0.001,0,0.001C2.51,2.159,2.509,2.161,2.508,2.162c0-0.002,0.001-0.004,0.002-0.005   c0,0,0-0.001,0.001-0.001c0.001-0.018,0-0.036,0.016-0.048c0,0,0-0.001,0-0.001c0,0,0.001-0.001,0.001-0.001   C2.53,2.092,2.533,2.081,2.544,2.073C2.544,2.073,2.544,2.072,2.546,2.072c-0.001-0.001-0.001-0.001,0-0.002   c-0.001-0.025,0-0.049,0.01-0.072c0.009-0.024,0.018-0.047,0.025-0.072c0.011-0.036,0.038-0.045,0.071-0.045   c0.002,0,0.004,0.003,0.005,0.005c0.001,0.003,0.001,0.006,0,0.009C2.639,1.926,2.62,1.958,2.603,1.99   C2.587,2.019,2.569,2.047,2.546,2.07C2.546,2.071,2.545,2.072,2.546,2.072z M2.953,2.667L2.936,2.65c0,0,0,0,0-0.001   C2.922,2.648,2.909,2.645,2.9,2.633c-0.001-0.001-0.001-0.005,0-0.007s0.004-0.003,0.006-0.003   c0.014,0.003,0.022,0.014,0.029,0.026h0.001C2.942,2.655,2.948,2.661,2.953,2.667c0.002,0,0.004,0.002,0.005,0.003   C2.957,2.669,2.955,2.668,2.953,2.667z M3.096,2.716C3.091,2.715,3.085,2.715,3.081,2.712c-0.01-0.006-0.018-0.013-0.025-0.021   C3.053,2.688,3.053,2.683,3.052,2.678c0.005-0.001,0.01-0.001,0.015-0.002C3.08,2.68,3.093,2.684,3.105,2.689   c0.004,0.002,0.007,0.008,0.008,0.013C3.115,2.708,3.103,2.717,3.096,2.716z M3.126,2.584c0.04,0.02,0.08,0.043,0.117,0.067   C3.3,2.689,3.357,2.726,3.418,2.757c0.004,0.002,0.007,0.007,0.01,0.011c0,0,0.001,0,0.001,0c0,0.001,0.001,0.001,0.001,0.001   c0.007,0.001,0.014,0,0.017,0.007c-0.002,0-0.005,0.002-0.006,0.001C3.438,2.776,3.435,2.773,3.431,2.77c0,0-0.001,0-0.001,0   c0,0,0,0-0.001-0.001c-0.02,0-0.038-0.004-0.056-0.012c-0.023-0.01-0.047-0.02-0.071-0.028C3.19,2.694,3.084,2.646,2.976,2.604   C2.936,2.588,2.901,2.565,2.869,2.537c-0.017-0.015-0.033-0.032-0.05-0.046C2.786,2.46,2.751,2.432,2.717,2.402   C2.714,2.399,2.715,2.393,2.715,2.388c0,0,0.005-0.002,0.007-0.002c0.014,0.005,0.027,0.009,0.04,0.016   C2.883,2.462,3.004,2.522,3.126,2.584z"/><path fill="#000000" d="M3.293,1.953c0,0,0.001,0,0.001,0c0.007-0.011,0.019-0.014,0.031-0.016c0,0,0,0,0.001-0.001   c0,0,0.001,0,0.002,0c0.004-0.003,0.007-0.007,0.01-0.009c0.001,0,0.004,0.001,0.006,0.001c-0.003,0.008-0.01,0.007-0.017,0.008   c0,0-0.001,0.001-0.001,0.001c-0.001,0-0.001,0-0.002,0C3.319,1.948,3.307,1.951,3.295,1.952C3.294,1.953,3.294,1.953,3.293,1.953   L3.29,1.958C3.292,1.956,3.292,1.955,3.293,1.953z"/><path fill-rule="evenodd" clip-rule="evenodd" fill="#000000" d="M3.685,1.749C3.684,1.751,3.682,1.752,3.681,1.754   C3.682,1.752,3.683,1.75,3.685,1.749c0.006-0.003,0.007-0.005,0.003-0.005C3.688,1.743,3.686,1.747,3.685,1.749z"/><path fill-rule="evenodd" clip-rule="evenodd" fill="#000000" d="M2.104,2.634C2.102,2.635,2.101,2.637,2.1,2.639   C2.101,2.637,2.102,2.635,2.104,2.634C2.108,2.627,2.114,2.622,2.12,2.616c0.001-0.002,0.002-0.003,0.004-0.005   C2.123,2.613,2.122,2.615,2.12,2.616C2.115,2.622,2.109,2.628,2.104,2.634z"/><path fill-rule="evenodd" clip-rule="evenodd" fill="#000000" d="M2.205,2.549C2.2,2.554,2.194,2.56,2.188,2.565   C2.188,2.567,2.186,2.568,2.185,2.57c0.001-0.001,0.002-0.003,0.003-0.005C2.193,2.559,2.199,2.554,2.205,2.549   c0-0.002,0.002-0.004,0.003-0.005C2.208,2.545,2.206,2.547,2.205,2.549z"/><polygon fill-rule="evenodd" clip-rule="evenodd" fill="#000000" points="2.574,2.75 2.568,2.75 2.57,2.757  "/><path fill-rule="evenodd" clip-rule="evenodd" fill="#000000" d="M1.575,3.075C1.544,3.123,1.501,3.16,1.457,3.194   C1.377,3.257,1.3,3.324,1.228,3.396C1.222,3.402,1.218,3.41,1.213,3.417C1.209,3.443,1.223,3.466,1.229,3.49   c0.005,0.018,0.002,0.034-0.004,0.049C1.203,3.587,1.167,3.622,1.118,3.644C1.111,3.647,1.101,3.649,1.094,3.648   C1.068,3.643,1.043,3.638,1.02,3.63C0.96,3.61,0.932,3.543,0.956,3.485C0.965,3.46,0.98,3.44,0.999,3.423   c0.01-0.01,0.022-0.017,0.033-0.026C1.07,3.365,1.111,3.354,1.158,3.375c0.017,0.008,0.033,0.002,0.047-0.009   C1.252,3.33,1.299,3.294,1.342,3.252C1.38,3.215,1.422,3.181,1.465,3.149C1.49,3.13,1.515,3.112,1.538,3.091   C1.549,3.081,1.562,3.077,1.575,3.075L1.575,3.075z"/><path fill-rule="evenodd" clip-rule="evenodd" fill="#000000" d="M1.405,2.521C1.4,2.525,1.398,2.528,1.396,2.528   c-0.042,0.006-0.084,0-0.127,0.01C1.231,2.549,1.192,2.554,1.153,2.56c-0.02,0.003-0.039,0.003-0.059,0.003   c-0.051,0.002-0.102,0-0.152,0.014C0.919,2.584,0.892,2.581,0.867,2.583C0.85,2.584,0.833,2.585,0.816,2.59   C0.8,2.595,0.786,2.604,0.78,2.622c0,0.003-0.001,0.005-0.002,0.008C0.76,2.687,0.721,2.72,0.666,2.736   C0.652,2.741,0.639,2.746,0.625,2.749c-0.03,0.007-0.058-0.001-0.078-0.023C0.521,2.696,0.503,2.66,0.501,2.619   c0-0.027,0.006-0.051,0.027-0.069c0.024-0.02,0.049-0.039,0.075-0.056C0.631,2.475,0.662,2.477,0.692,2.49   c0.024,0.01,0.045,0.025,0.06,0.047c0.017,0.024,0.041,0.028,0.067,0.026c0.009,0,0.017,0,0.025-0.002   c0.042-0.015,0.084-0.011,0.126-0.012C1.007,2.547,1.044,2.549,1.08,2.537C1.181,2.53,1.281,2.508,1.383,2.514   C1.39,2.515,1.396,2.519,1.405,2.521z"/><path fill-rule="evenodd" clip-rule="evenodd" fill="#000000" d="M0.503,1.677c0.001-0.011,0.001-0.025,0.003-0.039   c0.006-0.035,0.022-0.064,0.052-0.084C0.575,1.542,0.592,1.533,0.61,1.525C0.64,1.51,0.681,1.521,0.7,1.55   c0.02,0.03,0.041,0.061,0.045,0.099c0.002,0.026,0.018,0.039,0.041,0.048c0.093,0.04,0.189,0.071,0.287,0.1   C1.144,1.818,1.214,1.839,1.28,1.872c0.02,0.01,0.044,0.011,0.06,0.03c0.001,0.001,0.003,0.005,0.002,0.007   S1.337,1.915,1.336,1.915C1.325,1.914,1.313,1.913,1.303,1.909C1.272,1.896,1.242,1.881,1.21,1.869   C1.166,1.851,1.122,1.832,1.073,1.828c-0.089-0.035-0.185-0.049-0.272-0.09C0.786,1.73,0.769,1.726,0.752,1.723   c-0.007-0.001-0.018,0-0.024,0.005C0.717,1.735,0.708,1.747,0.696,1.754C0.66,1.781,0.619,1.79,0.576,1.78   c-0.04-0.009-0.061-0.026-0.07-0.075C0.504,1.697,0.504,1.688,0.503,1.677z"/><path fill-rule="evenodd" clip-rule="evenodd" fill="#000000" d="M1.831,1.034c-0.007-0.004-0.015-0.008-0.02-0.015   C1.805,1.01,1.8,1,1.796,0.989C1.788,0.966,1.773,0.951,1.748,0.949C1.725,0.946,1.705,0.937,1.689,0.919   C1.671,0.9,1.66,0.878,1.661,0.851C1.662,0.84,1.662,0.829,1.664,0.818C1.666,0.81,1.67,0.802,1.675,0.795   c0.017-0.021,0.068-0.032,0.093-0.021c0.017,0.008,0.028,0.021,0.029,0.039c0.002,0.025,0.003,0.05,0,0.076   C1.796,0.918,1.801,0.944,1.814,0.97C1.825,0.99,1.832,1.011,1.831,1.034L1.831,1.034z"/><path fill-rule="evenodd" clip-rule="evenodd" fill="#000000" d="M3.526,2.241c-0.005,0-0.011,0.001-0.017,0   C3.506,2.24,3.503,2.235,3.499,2.232C3.501,2.23,3.502,2.227,3.505,2.226C3.523,2.221,3.542,2.212,3.562,2.21   c0.034-0.003,0.066-0.011,0.1-0.017c0.05-0.01,0.1-0.013,0.15-0.022C3.875,2.16,3.938,2.149,4.002,2.137   C4.025,2.133,4.03,2.126,4.031,2.096c0-0.019,0.011-0.033,0.027-0.037c0.03-0.008,0.055,0.001,0.077,0.023   c0.007,0.007,0.009,0.023,0.003,0.032C4.134,2.121,4.129,2.129,4.122,2.132C4.101,2.141,4.08,2.15,4.058,2.153   C4.019,2.158,3.98,2.167,3.941,2.172c-0.04,0.005-0.078,0.014-0.116,0.022c-0.06,0.013-0.121,0.022-0.183,0.032   C3.604,2.232,3.565,2.238,3.526,2.244C3.526,2.243,3.526,2.242,3.526,2.241z"/><path fill-rule="evenodd" clip-rule="evenodd" fill="#000000" d="M1.354,3.075C1.349,3.092,1.337,3.104,1.323,3.114   c-0.025,0.017-0.052,0.034-0.078,0.05C1.223,3.177,1.2,3.188,1.18,3.204C1.141,3.232,1.096,3.249,1.053,3.269   C1.026,3.28,0.999,3.284,0.97,3.276C0.963,3.274,0.957,3.267,0.952,3.261C0.947,3.253,0.953,3.237,0.963,3.232   C0.965,3.23,0.967,3.229,0.97,3.228C0.98,3.223,0.99,3.218,1.001,3.215c0.008-0.002,0.017-0.004,0.025-0.003   c0.078,0.007,0.142-0.029,0.204-0.069C1.251,3.128,1.271,3.113,1.293,3.1C1.312,3.087,1.331,3.076,1.354,3.075L1.354,3.075z"/><path fill-rule="evenodd" clip-rule="evenodd" fill="#000000" d="M4.395,3.091C4.394,3.096,4.394,3.102,4.391,3.106   C4.383,3.12,4.37,3.125,4.357,3.131C4.331,3.143,4.307,3.135,4.285,3.12C4.283,3.119,4.28,3.117,4.279,3.115   C4.262,3.081,4.228,3.072,4.196,3.061C4.18,3.056,4.165,3.048,4.149,3.042C4.147,3.041,4.144,3.036,4.144,3.035   c0.004-0.003,0.007-0.007,0.011-0.008C4.173,3.025,4.189,3.03,4.204,3.038c0.04,0.02,0.08,0.026,0.124,0.015   c0.025-0.006,0.043,0.008,0.061,0.023C4.392,3.079,4.393,3.085,4.395,3.091z"/><path fill-rule="evenodd" clip-rule="evenodd" fill="#000000" d="M1.729,3.551c0.003,0.026-0.007,0.05-0.019,0.072   C1.692,3.656,1.68,3.689,1.679,3.727c0,0.027-0.021,0.044-0.045,0.056C1.618,3.791,1.598,3.781,1.595,3.764   C1.59,3.744,1.592,3.725,1.604,3.708c0.009-0.014,0.02-0.027,0.032-0.039c0.03-0.026,0.054-0.056,0.072-0.092   C1.713,3.567,1.722,3.56,1.729,3.551L1.729,3.551z"/><path fill-rule="evenodd" clip-rule="evenodd" fill="#000000" d="M3.958,1.545C3.955,1.506,3.97,1.475,3.994,1.447   c0.012-0.014,0.031-0.014,0.044,0c0.017,0.017,0.019,0.033,0.01,0.053C4.04,1.515,4.029,1.526,4.013,1.533   C3.995,1.542,3.976,1.544,3.958,1.545L3.958,1.545z"/><path fill-rule="evenodd" clip-rule="evenodd" fill="#000000" d="M1.61,2.038c-0.034-0.005-0.064-0.017-0.095-0.03   C1.497,2,1.479,1.992,1.46,1.985C1.436,1.975,1.417,1.96,1.406,1.936l-0.001,0c0.014,0.004,0.028,0.005,0.04,0.011   C1.49,1.968,1.534,1.993,1.581,2.009C1.595,2.014,1.604,2.025,1.61,2.038L1.61,2.038z"/><path fill-rule="evenodd" clip-rule="evenodd" fill="#000000" d="M1.609,2.039C1.637,2.041,1.66,2.05,1.678,2.072l0.001-0.001   C1.649,2.073,1.624,2.068,1.609,2.039L1.609,2.039z"/><path fill-rule="evenodd" clip-rule="evenodd" fill="#000000" d="M1.406,1.936c-0.005,0-0.01-0.001-0.015-0.002   c-0.002,0-0.006-0.002-0.006-0.004c0-0.006,0.004-0.008,0.01-0.004C1.399,1.928,1.402,1.932,1.406,1.936L1.406,1.936z"/></g><text x="0" y="20" fill="#000000" font-size="5px" font-weight="bold" font-family="'Helvetica Neue', Helvetica, Arial-Unicode, Arial, Sans-serif">Created by Alice Noir</text><text x="0" y="25" fill="#000000" font-size="5px" font-weight="bold" font-family="'Helvetica Neue', Helvetica, Arial-Unicode, Arial, Sans-serif">from the Noun Project</text></svg>