<svg xmlns="http://www.w3.org/2000/svg" xmlns:xlink="http://www.w3.org/1999/xlink" version="1.1" x="0px" y="0px" viewBox="0 0 5 5" enable-background="new 0 0 5 5" xml:space="preserve"><g><circle fill="#000000" cx="1.678" cy="1.966" r="0.269"></circle><g><g><path fill="#000000" d="M1.664,1.609c-0.026,0-0.047-0.021-0.048-0.046L1.593,0.894c-0.001-0.027,0.02-0.049,0.046-0.05     c0.026-0.001,0.049,0.02,0.049,0.046l0.023,0.669c0.001,0.027-0.02,0.049-0.046,0.05C1.666,1.609,1.665,1.609,1.664,1.609z"></path></g><g><path fill="#000000" d="M1.634,1.101c-0.093,0-0.184-0.034-0.258-0.096c-0.02-0.017-0.022-0.047-0.005-0.067     c0.017-0.021,0.047-0.023,0.067-0.006c0.061,0.05,0.132,0.075,0.207,0.073C1.718,1.001,1.79,0.97,1.846,0.916     c0.019-0.018,0.05-0.018,0.068,0.001c0.018,0.019,0.018,0.05-0.001,0.068C1.84,1.056,1.746,1.097,1.647,1.101     C1.643,1.101,1.639,1.101,1.634,1.101z"></path></g></g><g><g><path fill="#000000" d="M2.128,1.241c-0.008,0-0.016-0.002-0.023-0.006C2.082,1.222,2.074,1.193,2.087,1.17l0.326-0.584     c0.013-0.023,0.042-0.032,0.065-0.019C2.501,0.58,2.51,0.61,2.497,0.633L2.17,1.217C2.162,1.232,2.145,1.241,2.128,1.241z"></path></g><g><path fill="#000000" d="M2.545,0.841c-0.067,0-0.134-0.018-0.193-0.05c-0.085-0.048-0.15-0.126-0.183-0.222     c-0.008-0.025,0.005-0.053,0.03-0.061C2.225,0.5,2.252,0.513,2.26,0.538C2.286,0.612,2.334,0.67,2.399,0.707     c0.064,0.036,0.143,0.046,0.218,0.029c0.026-0.006,0.052,0.01,0.057,0.036C2.681,0.798,2.666,0.823,2.64,0.83     C2.608,0.837,2.576,0.841,2.545,0.841z"></path></g></g><g><path fill="#000000" d="M2.948,0.955c-0.016,0-0.031-0.009-0.039-0.024c-0.01-0.021-0.001-0.046,0.02-0.057l0.529-0.265    c0.021-0.01,0.047-0.001,0.057,0.02c0.011,0.021,0.002,0.046-0.019,0.057L2.966,0.95C2.96,0.953,2.954,0.955,2.948,0.955z"></path></g><g><path fill="#000000" d="M3.518,0.903c-0.005,0-0.01-0.001-0.016-0.003C3.419,0.867,3.351,0.807,3.312,0.729    C3.273,0.651,3.265,0.562,3.289,0.475c0.006-0.022,0.03-0.036,0.052-0.03s0.036,0.029,0.03,0.053    C3.353,0.564,3.358,0.631,3.388,0.69C3.417,0.75,3.47,0.796,3.534,0.82c0.021,0.009,0.033,0.034,0.024,0.055    C3.551,0.893,3.535,0.903,3.518,0.903z"></path></g><g><path fill="#000000" d="M4.092,0.717c-0.005,0-0.009-0.001-0.013-0.003C4.064,0.706,4.058,0.688,4.065,0.673l0.187-0.379    C4.259,0.279,4.277,0.272,4.292,0.28c0.015,0.007,0.021,0.026,0.014,0.041L4.119,0.699C4.114,0.71,4.104,0.717,4.092,0.717z"></path></g><g><path fill="#000000" d="M4.33,0.451c-0.038,0-0.075-0.008-0.11-0.025C4.165,0.398,4.122,0.351,4.098,0.292    c-0.006-0.016,0.001-0.033,0.017-0.04c0.016-0.006,0.033,0.001,0.04,0.017c0.018,0.046,0.05,0.081,0.093,0.102    c0.042,0.02,0.091,0.024,0.139,0.011c0.016-0.005,0.033,0.004,0.038,0.021C4.428,0.419,4.419,0.436,4.402,0.44    C4.379,0.447,4.354,0.451,4.33,0.451z"></path></g><g><g><path fill="#000000" d="M1.416,1.705c-0.014,0-0.027-0.006-0.037-0.017l-0.434-0.51c-0.018-0.02-0.015-0.05,0.006-0.067     c0.02-0.017,0.05-0.015,0.067,0.005l0.434,0.509c0.018,0.02,0.015,0.05-0.005,0.068C1.438,1.701,1.427,1.705,1.416,1.705z"></path></g><g><path fill="#000000" d="M0.855,1.401c-0.003,0-0.007,0-0.011,0c-0.026,0-0.047-0.022-0.047-0.049     c0-0.026,0.023-0.047,0.049-0.046c0.079,0.001,0.15-0.022,0.207-0.071c0.057-0.048,0.093-0.118,0.104-0.194     c0.003-0.026,0.028-0.045,0.054-0.042s0.044,0.028,0.042,0.054C1.24,1.152,1.191,1.242,1.116,1.307     C1.044,1.368,0.953,1.401,0.855,1.401z"></path></g></g><g><g><path fill="#000000" d="M1.281,1.935c-0.003,0-0.007,0-0.01-0.001l-0.656-0.13c-0.026-0.004-0.043-0.03-0.039-0.056     C0.582,1.722,0.607,1.705,0.634,1.71L1.29,1.839c0.026,0.004,0.043,0.03,0.038,0.056C1.323,1.919,1.303,1.935,1.281,1.935z"></path></g><g><path fill="#000000" d="M0.646,2.05c-0.015,0-0.029-0.007-0.039-0.019C0.591,2.01,0.595,1.979,0.617,1.963     C0.679,1.917,0.72,1.853,0.734,1.779c0.014-0.073,0-0.15-0.04-0.216C0.68,1.54,0.688,1.51,0.71,1.497     C0.733,1.483,0.763,1.49,0.776,1.513c0.053,0.087,0.071,0.188,0.052,0.285C0.81,1.894,0.755,1.98,0.674,2.041     C0.665,2.047,0.656,2.05,0.646,2.05z"></path></g></g><g><g><path fill="#000000" d="M0.723,2.505c-0.017,0-0.034-0.01-0.043-0.026C0.668,2.455,0.677,2.427,0.701,2.414l0.595-0.307     C1.319,2.095,1.348,2.104,1.36,2.128C1.372,2.152,1.363,2.181,1.34,2.193L0.745,2.5C0.738,2.503,0.73,2.505,0.723,2.505z"></path></g><g><path fill="#000000" d="M0.892,2.684c-0.004,0-0.008,0-0.012-0.001C0.854,2.675,0.838,2.649,0.845,2.624     c0.02-0.076,0.012-0.151-0.022-0.217C0.789,2.34,0.729,2.289,0.657,2.261C0.632,2.252,0.619,2.224,0.629,2.199     c0.009-0.025,0.037-0.038,0.062-0.028c0.095,0.036,0.172,0.104,0.217,0.191c0.045,0.087,0.056,0.188,0.03,0.286     C0.933,2.669,0.913,2.684,0.892,2.684z"></path></g></g><g><g><path fill="#000000" d="M1.939,3.055c-0.021,0-0.041-0.015-0.046-0.036L1.729,2.37C1.723,2.344,1.738,2.318,1.764,2.311     C1.79,2.305,1.816,2.32,1.823,2.347l0.163,0.648c0.006,0.026-0.009,0.052-0.035,0.059C1.947,3.055,1.942,3.055,1.939,3.055z"></path></g><g><path fill="#000000" d="M1.694,3.048c-0.009,0-0.019-0.003-0.027-0.008C1.645,3.025,1.639,2.996,1.654,2.974     C1.71,2.889,1.793,2.829,1.889,2.805c0.095-0.023,0.196-0.011,0.285,0.036c0.024,0.012,0.032,0.041,0.02,0.065     c-0.012,0.023-0.041,0.033-0.064,0.02C2.06,2.89,1.985,2.88,1.912,2.898C1.84,2.917,1.777,2.962,1.733,3.027     C1.725,3.04,1.709,3.048,1.694,3.048z"></path></g></g><g><g><path fill="#000000" d="M2.529,2.667c-0.01,0-0.02-0.003-0.029-0.01L1.969,2.25C1.948,2.234,1.944,2.204,1.96,2.183     c0.017-0.021,0.047-0.025,0.068-0.009l0.531,0.407C2.58,2.597,2.584,2.627,2.568,2.648C2.559,2.66,2.544,2.667,2.529,2.667z"></path></g><g><path fill="#000000" d="M2.333,2.814c-0.025,0-0.046-0.02-0.048-0.044c-0.009-0.101,0.02-0.2,0.08-0.278     C2.424,2.415,2.512,2.361,2.61,2.343c0.026-0.005,0.052,0.012,0.056,0.039c0.005,0.026-0.012,0.051-0.038,0.056     C2.551,2.452,2.487,2.491,2.441,2.55c-0.045,0.06-0.066,0.135-0.061,0.212c0.002,0.027-0.018,0.05-0.044,0.052     C2.335,2.814,2.334,2.814,2.333,2.814z"></path></g></g><g><g><path fill="#000000" d="M2.083,2.007c-0.026,0-0.047-0.021-0.048-0.047c0-0.026,0.021-0.048,0.047-0.049L2.75,1.9     c0.027,0,0.048,0.021,0.049,0.047c0,0.026-0.021,0.048-0.047,0.049L2.083,2.007L2.083,2.007z"></path></g><g><path fill="#000000" d="M2.689,2.233c-0.013,0-0.026-0.005-0.035-0.015c-0.07-0.075-0.109-0.17-0.111-0.269     C2.542,1.853,2.577,1.758,2.644,1.681c0.017-0.02,0.047-0.022,0.067-0.004c0.02,0.017,0.022,0.047,0.004,0.067     c-0.051,0.06-0.077,0.13-0.076,0.205C2.641,2.023,2.67,2.096,2.724,2.152c0.018,0.02,0.018,0.05-0.002,0.068     C2.712,2.229,2.7,2.233,2.689,2.233z"></path></g></g><g><path fill="#000000" d="M1.542,4.75c-0.034,0-0.066-0.02-0.081-0.053c-0.21-0.47-0.302-0.941-0.273-1.398    c0.054-0.861,0.404-1.341,0.419-1.362C1.637,1.898,1.691,1.89,1.731,1.919C1.77,1.948,1.778,2.003,1.749,2.042    C1.745,2.048,1.415,2.506,1.364,3.31c-0.027,0.428,0.06,0.871,0.259,1.316c0.02,0.044,0,0.096-0.044,0.116    C1.567,4.747,1.555,4.75,1.542,4.75z"></path></g><path fill="#000000" d="M1.363,4.328C1.233,4.326,1.492,3.495,2.185,3.281C2.185,3.281,2.378,4.345,1.363,4.328z"></path></g></svg>