<?xml version="1.0" encoding="UTF-8"?>
<!DOCTYPE svg PUBLIC "-//W3C//DTD SVG 1.1//EN" "http://www.w3.org/Graphics/SVG/1.1/DTD/svg11.dtd">
<svg version="1.1" xmlns="http://www.w3.org/2000/svg" xmlns:xlink="http://www.w3.org/1999/xlink" width="510" height="526"  xml:space="preserve" id="sun">
    <!-- Generated by PaintCode (www.paintcodeapp.com) -->
    <path id="sun-corona" stroke="none" fill="rgb(0, 0, 0)" d="M 450.6,308.4 L 510,264 450.6,219.6 484.9,153.8 412.1,139.6 414.4,65.5 342.6,84.2 312.5,16.3 256,64.4 199.5,16.3 169.4,84.1 97.6,65.4 99.9,139.6 27.1,153.8 61.4,219.6 2,264 61.4,308.4 27.1,374.2 99.9,388.4 97.6,462.5 169.4,443.8 199.5,511.6 256,463.5 312.5,511.6 342.6,443.8 414.4,462.5 412.1,388.4 484.9,374.2 450.6,308.4 Z M 397.7,441.7 L 333.5,425 306.6,485.7 256,442.7 205.4,485.7 178.5,425 114.3,441.7 116.4,375.3 51.3,362.6 82,303.7 28.8,264 81.9,224.2 51.2,165.3 116.4,152.6 114.3,86.2 178.5,102.9 205.4,42.2 256,85.2 306.6,42.2 333.5,102.9 397.7,86.2 395.6,152.6 460.7,165.3 430,224.2 483.1,264 430,303.8 460.7,362.6 395.5,375.3 397.7,441.7 Z M 397.7,441.7" />
    <path id="sun-core" stroke="none" fill="rgb(0, 0, 0)" d="M 256,111.6 C 172,111.6 103.6,180 103.6,264 103.6,348 172,416.4 256,416.4 340,416.4 408.4,348 408.4,264 408.4,180 340,111.6 256,111.6 Z M 256,400.3 C 180.8,400.3 119.7,339.1 119.7,264 119.7,188.9 180.8,127.6 256,127.6 331.2,127.6 392.3,188.8 392.3,263.9 392.3,339 331.2,400.3 256,400.3 Z M 256,400.3" />
</svg>
