<?xml version="1.0" encoding="utf-8"?>
<svg x="0px" y="0px" viewBox="0 0 100 100" xmlns="http://www.w3.org/2000/svg">
  <path d="M 48.314 85.542 L 48.314 85.542 C 48.112 85.542 43.354 85.506 39.671 82.375 C 39.352 82.102 39.085 81.922 38.834 81.808 L 36.131 80.58 L 36.131 48.999 L 39.988 45.701 L 50.294 26.604 C 50.579 26.138 50.79 25.633 50.918 25.105 C 51.045 24.582 51.089 24.037 51.047 23.488 L 50.068 10.623 L 50.763 10.044 C 52.259 8.795 54.159 8.107 56.109 8.107 C 62.847 8.107 68.075 17.106 68.075 24.848 C 68.075 25.85 68 26.861 67.847 27.85 L 66.64 35.676 L 85.401 35.676 C 87.792 35.676 90.142 36.663 91.852 38.386 C 93.498 40.043 94.397 42.198 94.382 44.448 C 94.367 46.407 93.711 48.256 92.529 49.753 C 94.183 51.373 95.155 53.611 95.155 55.978 C 95.155 59.082 93.545 61.863 90.994 63.414 C 91.445 64.477 91.679 65.618 91.679 66.796 C 91.679 70.353 89.556 73.451 86.414 74.795 C 86.575 75.459 86.656 76.144 86.656 76.841 C 86.656 81.456 83.045 85.273 78.433 85.528 L 78.337 85.532 L 48.314 85.542 Z M 39.645 78.316 L 40.288 78.609 C 40.846 78.861 41.374 79.208 41.95 79.699 C 44.605 81.96 48.229 82.028 48.318 82.03 L 78.283 82.017 C 81.012 81.842 83.143 79.578 83.143 76.84 C 83.143 76.005 82.947 75.201 82.56 74.456 L 81.448 72.312 L 83.83 71.915 C 86.341 71.494 88.166 69.342 88.166 66.795 C 88.166 65.665 87.803 64.586 87.115 63.674 L 85.614 61.683 L 87.997 60.942 C 90.176 60.261 91.642 58.265 91.642 55.978 C 91.642 54.112 90.629 52.376 88.999 51.454 L 86.678 50.137 L 88.805 48.526 C 90.106 47.541 90.859 46.045 90.869 44.424 C 90.88 43.117 90.343 41.852 89.359 40.862 C 88.303 39.799 86.863 39.19 85.401 39.19 L 62.543 39.19 L 64.376 27.316 C 64.499 26.506 64.564 25.675 64.564 24.848 C 64.564 18.893 60.662 11.619 56.109 11.619 C 55.266 11.619 54.441 11.842 53.714 12.255 L 54.547 23.223 C 54.618 24.142 54.545 25.054 54.33 25.935 C 54.121 26.801 53.779 27.63 53.313 28.396 L 42.767 47.947 L 39.645 50.617 L 39.645 78.316 Z M 28.748 87.861 L 8.764 87.861 C 6.772 87.861 5.155 86.241 5.155 84.252 L 5.155 46.556 C 5.155 44.567 6.772 42.947 8.764 42.947 L 28.747 42.947 C 30.736 42.947 32.356 44.567 32.356 46.556 L 32.356 84.251 C 32.357 86.241 30.737 87.861 28.748 87.861 M 8.764 46.461 C 8.713 46.461 8.665 46.509 8.665 46.557 L 8.665 84.252 C 8.665 84.3 8.713 84.348 8.764 84.348 L 28.747 84.348 C 28.795 84.348 28.843 84.3 28.843 84.252 L 28.843 46.556 C 28.843 46.508 28.795 46.46 28.747 46.46 L 8.764 46.46 Z M 21.069 81.297 C 23.153 81.297 24.843 79.608 24.843 77.523 C 24.843 75.439 23.153 73.75 21.069 73.75 C 18.985 73.75 17.295 75.439 17.295 77.523 C 17.295 79.607 18.985 81.297 21.069 81.297 Z" style="fill: rgb(249, 249, 249);"/>
</svg>