<?xml version="1.0" encoding="utf-8"?>
<svg x="0px" y="0px" viewBox="0 0 100 100" xmlns="http://www.w3.org/2000/svg">
  <g transform="matrix(1.221873, 0, 0, 1.23324, -10.769927, -1186.152466)">
    <path style="font-size: medium; font-style: normal; font-variant-ligatures: normal; font-variant-caps: normal; font-weight: normal; font-stretch: normal; text-indent: 0px; text-align: start; text-decoration: none; line-height: normal; letter-spacing: normal; word-spacing: normal; text-transform: none; direction: ltr; writing-mode: lr-tb; text-anchor: start; baseline-shift: baseline; opacity: 1; color: rgb(0, 0, 0); fill-opacity: 1; stroke: none; stroke-width: 2; marker: none; visibility: visible; display: inline; overflow: visible; font-family: Sans; fill: rgb(255, 255, 255);" d="M 19.46875 25 C 17.008382 25 15 27.00838 15 29.46875 L 15 30.125 A 1.0000998 1.0000998 0 0 0 15 30.3125 L 15 62.53125 C 15 64.99165 17.008382 67 19.46875 67 L 61.6875 67 C 63.339496 71.649286 67.789466 75 73 75 C 79.615572 75 85 69.6156 85 63 C 85 57.069986 80.660123 52.146691 75 51.1875 L 75 30.46875 A 1.0000998 1.0000998 0 0 0 75 30.09375 L 75 29.46875 C 75 27.00838 72.991618 25 70.53125 25 L 19.46875 25 z M 19.46875 27 L 70.53125 27 C 71.924792 27 73 28.07521 73 29.46875 L 73 29.75 L 45 49.75 L 17 29.75 L 17 29.46875 C 17 28.07521 18.075208 27 19.46875 27 z M 17 32.1875 L 44.40625 51.8125 A 1.0000998 1.0000998 0 0 0 45.59375 51.8125 L 73 32.1875 L 73 51 C 66.384428 51 61 56.3844 61 63 C 61 63.685586 61.076604 64.345614 61.1875 65 L 19.46875 65 C 18.075208 65 17 63.92485 17 62.53125 L 17 32.1875 z M 73 53 C 78.534692 53 83 57.4653 83 63 C 83 68.5347 78.534692 73 73 73 C 67.465307 73 63 68.5347 63 63 C 63 57.4653 67.465307 53 73 53 z M 72.875 55.96875 A 1.0000998 1.0000998 0 0 0 72 57 L 72 63 A 1.0000998 1.0000998 0 1 0 74 63 L 74 57 A 1.0000998 1.0000998 0 0 0 72.875 55.96875 z M 73 66 C 71.895431 66 71 66.895431 71 68 C 71 69.104569 71.895431 70 73 70 C 74.104569 70 75 69.104569 75 68 C 75 66.895431 74.104569 66 73 66 z " transform="translate(0,952.36218)"/>
  </g>
</svg>