<?xml version="1.0" encoding="utf-8"?>
<svg x="0px" y="0px" viewBox="0 0 100 100" xmlns="http://www.w3.org/2000/svg">
  <title>BS-Question-Light-Rounded-Spiky</title>
  <path d="M56.45,8a1.23,1.23,0,0,1,1.08.63l.46.84a7.23,7.23,0,0,0,6.32,3.72,7.17,7.17,0,0,0,3-.67l.87-.4a1.21,1.21,0,0,1,.51-.12,1.23,1.23,0,0,1,1.21,1l.18.94a7.22,7.22,0,0,0,8,5.79l.95-.12h.16a1.21,1.21,0,0,1,.91.42,1.19,1.19,0,0,1,.3,1l-.12.95a7.25,7.25,0,0,0,5.79,8l.94.18a1.23,1.23,0,0,1,.88,1.72l-.4.87a7.25,7.25,0,0,0,3,9.36l.84.46a1.23,1.23,0,0,1,.3,1.91l-.65.7a7.25,7.25,0,0,0,0,9.85l.65.7a1.23,1.23,0,0,1-.3,1.91l-.84.46a7.25,7.25,0,0,0-3,9.36l.4.87A1.23,1.23,0,0,1,87,69.94l-.94.18a7.25,7.25,0,0,0-5.79,8l.12.95a1.19,1.19,0,0,1-.3,1,1.21,1.21,0,0,1-.91.42H79l-.95-.12a7.22,7.22,0,0,0-8,5.79l-.18.94a1.23,1.23,0,0,1-1.21,1,1.21,1.21,0,0,1-.51-.12l-.87-.4a7.22,7.22,0,0,0-9.36,3l-.46.84a1.23,1.23,0,0,1-1.08.63,1.2,1.2,0,0,1-.83-.33l-.7-.65a7.23,7.23,0,0,0-9.85,0l-.7.65a1.2,1.2,0,0,1-.83.33,1.23,1.23,0,0,1-1.08-.63L42,90.53a7.22,7.22,0,0,0-9.36-3l-.87.4a1.21,1.21,0,0,1-.51.12,1.23,1.23,0,0,1-1.21-1l-.18-.94a7.22,7.22,0,0,0-8-5.79l-.95.12H20.8a1.21,1.21,0,0,1-.91-.42,1.19,1.19,0,0,1-.3-1l.12-.95a7.25,7.25,0,0,0-5.79-8L13,69.94a1.23,1.23,0,0,1-.88-1.72l.4-.87a7.25,7.25,0,0,0-3-9.36l-.84-.46a1.23,1.23,0,0,1-.3-1.91l.65-.7a7.25,7.25,0,0,0,0-9.85l-.65-.7a1.23,1.23,0,0,1,.3-1.91L9.47,42a7.25,7.25,0,0,0,3-9.36l-.4-.87A1.23,1.23,0,0,1,13,30.06l.94-.18a7.25,7.25,0,0,0,5.79-8L19.59,21a1.19,1.19,0,0,1,.3-1,1.21,1.21,0,0,1,.91-.42H21l.95.12a7.22,7.22,0,0,0,8-5.79l.18-.94a1.23,1.23,0,0,1,1.21-1,1.21,1.21,0,0,1,.51.12l.87.4a7.17,7.17,0,0,0,3,.67A7.23,7.23,0,0,0,42,9.47l.46-.84A1.23,1.23,0,0,1,43.55,8a1.2,1.2,0,0,1,.83.33l.7.65a7.23,7.23,0,0,0,9.85,0l.7-.65A1.2,1.2,0,0,1,56.45,8m0-3a4.19,4.19,0,0,0-2.87,1.13l-.7.65a4.23,4.23,0,0,1-5.76,0l-.7-.65a4.23,4.23,0,0,0-6.57,1L39.38,8a4.22,4.22,0,0,1-5.48,1.78L33,9.39a4.22,4.22,0,0,0-5.93,3l-.18.94a4.22,4.22,0,0,1-4.66,3.38l-.95-.12a4.3,4.3,0,0,0-.52,0,4.23,4.23,0,0,0-4.18,4.74l.12.95a4.23,4.23,0,0,1-3.38,4.66l-.94.18a4.23,4.23,0,0,0-3,5.93l.4.87A4.23,4.23,0,0,1,8,39.38l-.84.46a4.23,4.23,0,0,0-1,6.57l.65.7a4.23,4.23,0,0,1,0,5.76l-.65.7a4.23,4.23,0,0,0,1,6.57l.84.46a4.23,4.23,0,0,1,1.78,5.48l-.4.87a4.23,4.23,0,0,0,3,5.93l.94.18a4.23,4.23,0,0,1,3.38,4.66l-.12.95a4.23,4.23,0,0,0,4.18,4.74,4.32,4.32,0,0,0,.52,0l.95-.12a4.22,4.22,0,0,1,4.66,3.38l.18.94a4.22,4.22,0,0,0,5.93,3l.87-.4A4.22,4.22,0,0,1,39.38,92l.46.84a4.23,4.23,0,0,0,6.57,1l.7-.65a4.23,4.23,0,0,1,5.76,0l.7.65a4.23,4.23,0,0,0,6.57-1l.46-.84a4.22,4.22,0,0,1,5.48-1.78l.87.4a4.22,4.22,0,0,0,5.93-3l.18-.94a4.22,4.22,0,0,1,4.66-3.38l.95.12a4.31,4.31,0,0,0,.52,0,4.23,4.23,0,0,0,4.18-4.74l-.12-.95a4.23,4.23,0,0,1,3.38-4.66l.94-.18a4.23,4.23,0,0,0,3-5.93l-.4-.87A4.23,4.23,0,0,1,92,60.62l.84-.46a4.23,4.23,0,0,0,1-6.57l-.65-.7a4.23,4.23,0,0,1,0-5.76l.65-.7a4.23,4.23,0,0,0-1-6.57L92,39.38a4.23,4.23,0,0,1-1.78-5.48l.4-.87a4.23,4.23,0,0,0-3-5.93l-.94-.18a4.23,4.23,0,0,1-3.38-4.66l.12-.95a4.23,4.23,0,0,0-4.18-4.74,4.32,4.32,0,0,0-.52,0l-.95.12a4.22,4.22,0,0,1-4.66-3.38l-.18-.94a4.22,4.22,0,0,0-5.93-3l-.87.4A4.22,4.22,0,0,1,60.62,8l-.46-.84A4.21,4.21,0,0,0,56.45,5Z" style="fill: rgb(253, 253, 253);"/>
  <path d="M46.9,58.15V54.87c0-5.07.3-5.79,4.12-9.73,3-3.1,3.88-4.54,3.88-6.69,0-2.81-1.85-4.48-5-4.48-3.52,0-5.37,1.79-5.73,5.73h-3.7c.3-6.33,3.7-9.67,9.79-9.67,5.67,0,9.19,3.22,9.19,8.42,0,3.16-1,5-5.07,9-3.16,3.16-3.4,3.76-3.4,8.66v2.09Zm5.43,8.48a3.43,3.43,0,1,1-3.4-3.46A3.45,3.45,0,0,1,52.33,66.63Z" style="fill: rgb(253, 253, 253);"/>
</svg>