<?xml version="1.0" encoding="utf-8"?>
<svg style="enable-background:new 0 0 100 100;" x="0px" y="0px" viewBox="0 0 100 100" xmlns="http://www.w3.org/2000/svg">
  <style type="text/css">
	.st0{fill:none;}
</style>
  <g>
    <path class="st0" d="M71.4,50.9l-21-36.4L30.1,49.7c4.9-3.8,12.1-6.1,19.9-6.1C58.7,43.6,66.5,46.3,71.4,50.9z"/>
    <path class="st0" d="M56.4,64.9c6.9-1.3,12.6-4.5,15.5-8.9c-2.8-4.4-8.6-7.6-15.5-8.9c2.8,2,4.6,5.2,4.6,8.9   C60.9,59.7,59.1,62.9,56.4,64.9z"/>
    <circle class="st0" cx="50" cy="56" r="4.6"/>
    <path class="st0" d="M43.6,64.9c-2.8-2-4.6-5.2-4.6-8.9c0-3.7,1.8-6.9,4.6-8.9C36.8,48.4,31,51.6,28.2,56   C31,60.4,36.8,63.6,43.6,64.9z"/>
    <path class="st0" d="M74.8,56.8c-4,7-13.7,11.6-24.8,11.6c-10.8,0-20.2-4.3-24.4-11L9.7,85h81.4L74.8,56.8z"/>
    <path d="M50.4,8.5L4.5,88h91.8L50.4,8.5z M50,51.4c2.6,0,4.6,2.1,4.6,4.6c0,2.6-2.1,4.6-4.6,4.6s-4.6-2.1-4.6-4.6   C45.4,53.4,47.4,51.4,50,51.4z M56.4,47.1c6.9,1.3,12.6,4.5,15.5,8.9c-2.8,4.4-8.6,7.6-15.5,8.9c2.8-2,4.6-5.2,4.6-8.9   C60.9,52.3,59.1,49.1,56.4,47.1z M50.4,14.5l21,36.4c-4.9-4.6-12.7-7.3-21.4-7.3c-7.9,0-15,2.3-19.9,6.1L50.4,14.5z M43.6,47.1   c-2.8,2-4.6,5.2-4.6,8.9c0,3.7,1.8,6.9,4.6,8.9C36.8,63.6,31,60.4,28.2,56C31,51.6,36.8,48.4,43.6,47.1z M25.6,57.5   c4.2,6.7,13.7,11,24.4,11c11.1,0,20.8-4.5,24.8-11.6L91.1,85H9.7L25.6,57.5z" style="fill: rgb(255, 255, 255);"/>
  </g>
</svg>